<svg width="36" height="35" viewBox="0 0 36 35" fill="none" xmlns="http://www.w3.org/2000/svg">
<path d="M13.214 22.1728L22.3788 4.50777C22.5048 4.26449 22.6308 4.02441 22.7448 3.77313C22.8483 3.54585 22.9353 3.31697 22.9923 3.06889C23.1123 2.54712 23.0793 2.00294 22.8933 1.50517C22.7116 1.01545 22.3851 0.602391 21.9633 0.328781C21.5488 0.0605426 21.0608 -0.0484506 20.5803 0.0198787C20.1003 0.0887015 19.6608 0.330382 19.3144 0.708107C19.1494 0.884166 19.0144 1.08423 18.8899 1.2971C18.7519 1.53078 18.6274 1.77406 18.5014 2.01734L17.9224 3.13291L17.3419 2.01574C17.2159 1.77406 17.0914 1.53078 16.9534 1.2971C16.8322 1.08457 16.6898 0.886563 16.5289 0.706507C16.1909 0.332831 15.7451 0.0910417 15.2629 0.0198787C14.7829 -0.0479462 14.2956 0.0610247 13.8815 0.328781C13.4598 0.602481 13.1333 1.01551 12.9515 1.50517C12.7647 2.00222 12.7301 2.54956 12.8525 3.06889C12.9095 3.31697 12.9965 3.54585 13.0985 3.77313C13.2125 4.02441 13.3385 4.26449 13.4645 4.50777L15.3364 8.11537L8.04359 22.1712H3.0442C2.7937 22.1712 2.54171 22.1712 2.29121 22.1872C2.06322 22.2016 1.84122 22.2321 1.61923 22.3009C1.15424 22.4449 0.746248 22.749 0.452254 23.178C0.15856 23.6097 0.000269733 24.1295 3.44417e-07 24.663C-0.000269044 25.1965 0.157496 25.7165 0.450754 26.1486C0.746248 26.5775 1.15274 26.88 1.61923 27.0257C1.84122 27.0945 2.06322 27.1249 2.29121 27.1393C2.54171 27.1553 2.7937 27.1553 3.0457 27.1553H22.6908C22.7508 27.0154 22.8009 26.871 22.8408 26.7232C23.4633 24.4568 21.9168 22.1712 19.7883 22.1712L13.214 22.1728ZM4.67016 27.97L3.48219 30.3708C3.35919 30.6204 3.23469 30.8669 3.1237 31.1246C3.02089 31.3564 2.94048 31.5988 2.8837 31.8481C2.76334 32.3813 2.7968 32.9408 2.9797 33.4534C3.1612 33.9624 3.48069 34.3865 3.89018 34.6618C4.29817 34.9371 4.77366 35.0491 5.24165 34.9771C5.71264 34.9067 6.14163 34.6602 6.48063 34.2729C6.64262 34.0888 6.77462 33.8855 6.89762 33.6679C7.03261 33.4278 7.15411 33.1781 7.27711 32.9284L9.00057 29.4457C8.86557 29.2056 7.5801 27.0929 4.67016 27.97M35.5485 23.1588C35.2591 22.7409 34.8483 22.437 34.38 22.2945C34.1607 22.2299 33.9353 22.1918 33.708 22.1808C33.456 22.1648 33.2056 22.1648 32.9536 22.1648H27.9722L21.3873 9.65668C20.5233 10.6245 19.9598 11.8529 19.7733 13.1747C19.5322 14.8279 19.8207 16.5197 20.5923 17.9762L28.5032 33.01C28.6292 33.2501 28.7536 33.4902 28.8916 33.7207C29.0176 33.9287 29.1526 34.1256 29.3161 34.3033C29.6626 34.6746 30.1021 34.9115 30.5836 34.9803C31.0636 35.0475 31.5481 34.9419 31.9666 34.6762C32.3875 34.4075 32.7146 33.9995 32.8981 33.5142C33.0856 33.0228 33.1171 32.4867 32.9971 31.9713C32.938 31.731 32.8551 31.4981 32.7496 31.2767C32.6371 31.0286 32.5096 30.7917 32.3836 30.5516L30.5596 27.0849H32.9536C33.2056 27.0849 33.456 27.0849 33.708 27.0705C33.936 27.0561 34.158 27.0257 34.38 26.9584C34.849 26.8158 35.2605 26.5113 35.55 26.0925C35.8433 25.6679 36.001 25.154 36 24.6265C36.001 24.099 35.8433 23.585 35.55 23.1604L35.5485 23.1588Z" fill="black"/>
</svg>
