<svg width="43" height="28" viewBox="0 0 43 28" fill="none" xmlns="http://www.w3.org/2000/svg">
<path d="M10.8038 8.26499L13.8977 8.50749L12.5473 3.59749C12.426 3.15507 12.1458 2.74541 11.7364 2.41214C11.327 2.07888 10.8038 1.83448 10.2226 1.70499L4.0111 0.31499C2.77821 0.0399901 1.53524 0.72499 1.53524 1.68499C1.53524 2.58749 2.74126 3.21749 3.88009 2.90999L4.74345 2.76499L8.22376 3.53249C8.56219 3.60745 8.86834 3.74705 9.11175 3.9374C9.35517 4.12776 9.52735 4.36223 9.61118 4.61749L10.8038 8.26499ZM14.012 18.6875L16.1653 25.5L18.7823 24.8125L17.1698 18.6875H14.012Z" fill="#65878D"/>
<path d="M15.5338 23.5H36.6709V25.5825H16.0108L15.5338 23.5Z" fill="#65878D"/>
<path d="M42.3449 10.02L39.8556 19.05C39.6641 19.75 38.8377 20.25 37.8803 20.25H14.8619C14.7099 20.2501 14.5624 20.2118 14.4434 20.1414C14.3244 20.071 14.241 19.9727 14.2068 19.8625L10.1688 6.86001C10.0647 6.52751 10.4275 6.22001 10.8844 6.25001L40.551 8.22501C40.8337 8.24376 41.1079 8.30676 41.3556 8.40989C41.6033 8.51302 41.819 8.65395 41.9883 8.82343C42.1577 8.99292 42.2771 9.18714 42.3385 9.39336C42.4 9.59957 42.4021 9.81313 42.3449 10.02V10.02ZM37.6586 10.2925L36.2275 10.1975C36.088 10.1882 35.9475 10.2006 35.8148 10.2339C35.6821 10.2672 35.5602 10.3207 35.4568 10.3911C35.3535 10.4614 35.271 10.547 35.2145 10.6423C35.1581 10.7377 35.1289 10.8408 35.129 10.945V12.15C35.129 12.565 35.5791 12.9 36.1368 12.9H37.6418C38.1188 12.9 38.532 12.65 38.6295 12.3L38.8512 11.49C38.8904 11.3522 38.8898 11.2097 38.8494 11.072C38.8091 10.9344 38.73 10.8046 38.6172 10.6914C38.5045 10.5782 38.3607 10.4841 38.1955 10.4154C38.0302 10.3466 37.8472 10.3047 37.6586 10.2925V10.2925ZM24.8224 14.8975H22.9143C22.3566 14.8975 21.9065 15.2325 21.9065 15.6475V17.25C21.9065 17.665 22.3566 18 22.9143 18H24.8224C25.3801 18 25.8302 17.665 25.8302 17.25V15.6475C25.8302 15.2325 25.3801 14.8975 24.8224 14.8975ZM22.9143 12.8975H24.8224C25.3801 12.8975 25.8302 12.5625 25.8302 12.1475V10.19C25.8302 9.80251 25.4305 9.47751 24.9131 9.44251L23.005 9.31501C22.8655 9.30567 22.725 9.31806 22.5923 9.35138C22.4596 9.38471 22.3377 9.43824 22.2343 9.50856C22.131 9.57889 22.0485 9.66446 21.992 9.75984C21.9356 9.85522 21.9064 9.9583 21.9065 10.0625V12.1475C21.9065 12.5625 22.3566 12.8975 22.9143 12.8975ZM28.5177 15.6475V17.25C28.5177 17.665 28.9679 18 29.5255 18H31.4337C31.9913 18 32.4415 17.665 32.4415 17.25V15.6475C32.4415 15.2325 31.9913 14.8975 31.4337 14.8975H29.5255C28.9679 14.8975 28.5177 15.2325 28.5177 15.6475ZM29.5255 12.8975H31.4337C31.9913 12.8975 32.4415 12.5625 32.4415 12.1475V10.63C32.4415 10.2425 32.0417 9.91751 31.5244 9.88251L29.6163 9.75501C29.4768 9.74567 29.3362 9.75806 29.2035 9.79138C29.0708 9.82471 28.9489 9.87824 28.8456 9.94856C28.7422 10.0189 28.6597 10.1045 28.6033 10.1998C28.5468 10.2952 28.5177 10.3983 28.5177 10.5025V12.1475C28.5177 12.5625 28.9679 12.8975 29.5255 12.8975ZM14.1598 9.71251L14.9694 12.315C15.0207 12.48 15.1456 12.6272 15.3237 12.7325C15.5019 12.8378 15.7228 12.8951 15.9503 12.895H18.2112C18.7688 12.895 19.219 12.56 19.219 12.145V9.75001C19.219 9.36251 18.8192 9.03751 18.3019 9.00251L15.2348 8.79751C14.5495 8.75251 14.0052 9.21751 14.1598 9.71251V9.71251ZM17.8013 18H18.5437C18.9133 18 19.2156 17.775 19.2156 17.5V15.6475C19.2156 15.2325 18.7655 14.8975 18.2078 14.8975H17.0354C16.387 14.8975 15.9066 15.3475 16.0545 15.8175L16.4912 17.2275C16.5608 17.4473 16.728 17.6431 16.9658 17.7833C17.2036 17.9235 17.498 17.9998 17.8013 18V18ZM37.709 15.64C37.8165 15.255 37.4201 14.895 36.8927 14.895H36.1368C35.5791 14.895 35.129 15.23 35.129 15.645V17.3775C35.129 17.4589 35.1505 17.5396 35.1924 17.6148C35.2343 17.69 35.2956 17.7583 35.373 17.8159C35.4504 17.8735 35.5422 17.9192 35.6433 17.9503C35.7444 17.9815 35.8527 17.9975 35.9621 17.9975C36.6004 17.9975 37.1513 17.6625 37.279 17.1975L37.709 15.64V15.64Z" fill="#ABB3BA"/>
<path d="M17.6233 27.3325C15.5824 27.3325 13.928 26.1013 13.928 24.5825C13.928 23.0637 15.5824 21.8325 17.6233 21.8325C19.6641 21.8325 21.3186 23.0637 21.3186 24.5825C21.3186 26.1013 19.6641 27.3325 17.6233 27.3325Z" fill="#2F2F2F"/>
<path d="M17.6233 25.865C16.6715 25.865 15.8999 25.2908 15.8999 24.5825C15.8999 23.8742 16.6715 23.3 17.6233 23.3C18.5751 23.3 19.3466 23.8742 19.3466 24.5825C19.3466 25.2908 18.5751 25.865 17.6233 25.865Z" fill="#65878D"/>
<path d="M35.3742 27.3325C33.3334 27.3325 31.6789 26.1013 31.6789 24.5825C31.6789 23.0637 33.3334 21.8325 35.3742 21.8325C37.4151 21.8325 39.0695 23.0637 39.0695 24.5825C39.0695 26.1013 37.4151 27.3325 35.3742 27.3325Z" fill="#2F2F2F"/>
<path d="M35.3742 25.865C34.4224 25.865 33.6509 25.2908 33.6509 24.5825C33.6509 23.8742 34.4224 23.3 35.3742 23.3C36.326 23.3 37.0976 23.8742 37.0976 24.5825C37.0976 25.2908 36.326 25.865 35.3742 25.865Z" fill="#65878D"/>
<path d="M3.16117 3.91502C1.78637 3.91502 0.671873 3.08563 0.671873 2.06252C0.671873 1.03941 1.78637 0.210022 3.16117 0.210022C4.53597 0.210022 5.65047 1.03941 5.65047 2.06252C5.65047 3.08563 4.53597 3.91502 3.16117 3.91502Z" fill="#65878D"/>
</svg>
