<svg width="29" height="33" viewBox="0 0 33 33" fill="none" xmlns="http://www.w3.org/2000/svg">
<path d="M28.9333 4.58333C27.8833 1.93333 24.8333 0.633335 22.1333 1.68333C19.4333 2.73333 18.1333 5.73333 19.1833 8.38333C20.2833 11.0333 23.3333 12.3333 26.0333 11.2833C28.7333 10.2333 30.0333 7.23333 28.9333 4.58333Z" fill="#64892F"/>
<path d="M28.6333 4.73333C27.6333 2.23333 24.7333 1.03333 22.2333 2.03333C19.6833 3.03333 18.4833 5.83333 19.4833 8.33333C20.4833 10.8333 23.3833 12.0333 25.8833 11.0333C28.4333 10.0333 29.6833 7.18333 28.6333 4.73333Z" fill="#FDFFB8"/>
<path d="M22.6833 2.08333C22.8333 1.93333 25.5333 1.88333 25.5833 2.18333C25.6333 2.28333 25.7333 2.33333 25.7333 2.43333C25.6833 2.78333 24.2333 5.93333 24.2333 5.93333C24.1833 5.93333 24.0333 5.73333 23.9333 5.88333C23.8333 5.98333 22.4833 2.48333 22.5333 2.43333C22.6333 2.33333 22.5833 2.18333 22.6833 2.08333ZM25.4833 10.9333C25.3333 11.0833 22.6333 11.1333 22.5833 10.8333C22.5333 10.7333 22.4333 10.6833 22.4333 10.5833C22.4833 10.2333 23.9333 7.08333 23.9333 7.08333C23.9833 7.08333 24.1333 7.28333 24.2333 7.13333C24.3333 7.03333 25.6833 10.5333 25.6333 10.5833C25.5333 10.6833 25.5833 10.8333 25.4833 10.9333ZM28.5833 5.13333C28.7833 5.28333 28.7833 7.88333 28.4833 7.98333C28.3833 8.03333 28.3333 8.13333 28.2333 8.13333C27.8333 8.08333 24.6333 6.68333 24.6333 6.68333C24.6333 6.63333 24.8333 6.48333 24.6833 6.38333C24.5833 6.28333 28.1833 4.98333 28.2333 5.03333C28.3333 5.08333 28.4833 5.03333 28.5833 5.13333ZM19.5833 7.83333C19.3833 7.68333 19.3833 5.08333 19.6833 4.98333C19.7833 4.93333 19.8333 4.83333 19.9333 4.83333C20.3333 4.88333 23.5333 6.28333 23.5333 6.28333C23.5333 6.33333 23.3333 6.48333 23.4833 6.58333C23.5833 6.68333 19.9833 7.98333 19.9333 7.93333C19.8333 7.93333 19.6833 7.93333 19.5833 7.83333ZM19.9833 4.43333C19.9333 4.23333 21.8333 2.33333 22.0833 2.48333C22.1833 2.53333 22.3333 2.48333 22.3833 2.53333C22.5833 2.83333 23.8833 6.03333 23.8833 6.03333C23.8333 6.03333 23.6333 6.03333 23.6333 6.18333C23.6833 6.33333 20.1333 4.78333 20.1333 4.73333C20.1333 4.63333 19.9833 4.53333 19.9833 4.43333ZM28.2833 8.63333C28.3333 8.83333 26.4333 10.6833 26.1833 10.5833C26.0833 10.5333 25.9333 10.5833 25.8833 10.5333C25.6833 10.2333 24.3833 7.03333 24.3833 7.03333C24.4333 7.03333 24.6333 7.03333 24.6333 6.83333C24.5833 6.68333 28.1333 8.23333 28.1333 8.28333C28.1333 8.43333 28.2333 8.53333 28.2833 8.63333ZM26.2333 2.43333C26.4333 2.38333 28.3833 4.23333 28.2333 4.48333C28.1833 4.58333 28.2333 4.68333 28.1333 4.78333C27.8333 4.98333 24.5333 6.23333 24.5333 6.23333C24.5333 6.18333 24.5333 5.98333 24.3333 5.98333C24.1833 6.03333 25.7833 2.58333 25.8333 2.58333C26.0333 2.58333 26.1333 2.48333 26.2333 2.43333ZM21.9333 10.5333C21.7333 10.5833 19.7833 8.73333 19.9333 8.48333C19.9833 8.38333 19.9333 8.28333 20.0333 8.18333C20.3333 7.98333 23.6333 6.73333 23.6333 6.73333C23.6333 6.78333 23.6333 6.98333 23.8333 6.98333C23.9833 6.93333 22.3833 10.3833 22.3333 10.3833C22.1333 10.3833 22.0333 10.4833 21.9333 10.5333Z" fill="#CED74D"/>
<path d="M12.4833 4.83333C11.2333 3.58333 9.13334 3.58333 7.88334 4.83333L3.33334 9.28333L4.03334 9.98333L8.58334 5.53333C9.48334 4.63333 10.9333 4.63333 11.8333 5.53333L21.8333 15.3833L22.5333 14.6833L12.4833 4.83333Z" fill="#C10259"/>
<path opacity="0.8" d="M24.1833 6.53333H11.6333C13.9833 11.9833 6.88334 21.8333 15.1333 23.4833C17.6833 24.3833 17.5333 26.4333 16.6833 28.4333C15.7833 30.5333 13.7333 30.8833 13.6833 30.9333C13.6333 30.9833 13.5833 31.0833 13.5833 31.1833C13.5833 31.2833 13.6333 31.3833 13.7333 31.3833H22.0333C22.0833 31.3833 22.1333 31.2833 22.1833 31.1833C22.1833 31.0833 22.1333 30.9333 22.0833 30.9333C22.0833 30.9333 19.9833 30.5333 19.0833 28.4333C18.2333 26.4833 18.1333 24.3833 20.6333 23.4833C28.9333 21.7833 21.8333 11.9333 24.1833 6.53333ZM17.9333 22.7833C7.48334 22.7833 14.8333 12.2833 12.6833 6.93333H23.1833C21.0333 12.2833 28.3833 22.7833 17.9333 22.7833Z" fill="#A1B8C7"/>
<g opacity="0.8">
<path opacity="0.8" d="M12.9333 16.4833C12.6333 19.5333 13.1833 21.9833 17.8833 21.9833C21.7833 21.9833 22.8333 20.2833 22.8833 17.9333C19.7833 18.5333 16.9833 15.8333 12.9333 16.4833Z" fill="#F65500"/>
<path opacity="0.8" d="M22.9333 17.9833C22.9833 16.2333 22.4833 14.1333 22.2333 12.1833C19.5333 12.2833 17.0333 10.3333 13.6833 10.5333C13.6333 12.4333 13.1333 14.5833 12.9333 16.4833C16.9833 15.8333 19.7833 18.5333 22.9333 17.9833Z" fill="#FCB334"/>
</g>
</svg>
