<svg width="49" height="51" viewBox="0 0 49 51" fill="none" xmlns="http://www.w3.org/2000/svg">
<path d="M24 48C37.2548 48 48 37.2548 48 24C48 10.7452 37.2548 0 24 0C10.7452 0 0 10.7452 0 24C0 37.2548 10.7452 48 24 48Z" fill="#FCEA2B"/>
<path d="M36.16 32.4099C36.16 35.9789 32.185 38.8159 24.22 38.8159C16.253 38.8159 12.23 35.9699 12.23 32.4099H12.324C12.324 32.4099 24.464 35.4729 36.004 32.4759L36.164 32.4099H36.16Z" fill="#EA5A47"/>
<path d="M31.04 43.78C31.04 44.513 30.482 45.108 29.794 45.108C29.106 45.108 28.548 44.514 28.548 43.78V39.393L31.809 38.17L34.548 36.54V48.02C34.548 48.886 33.765 49.588 32.799 49.588C31.833 49.588 31.05 48.886 31.05 48.02V43.317" fill="#92D3F5"/>
<path d="M9.19006 15.1999C9.91006 13.8146 11.1183 12.7457 12.5811 12.1999C13.9861 11.5009 15.6014 11.3511 17.1111 11.7799M38.8001 15.1999C38.0296 13.8502 36.8425 12.7863 35.4167 12.1678C33.9909 11.5493 32.4031 11.4093 30.8911 11.7689" stroke="black" stroke-width="2" stroke-miterlimit="10" stroke-linecap="round" stroke-linejoin="round"/>
<path d="M38.24 42.07C43.578 37.858 47.004 31.33 47.004 24C47.004 11.3 36.704 1 24.004 1C11.304 1 1.00403 11.3 1.00403 24C1.00403 36.7 11.304 47 24.004 47C24.372 47 24.737 46.991 25.1 46.974" stroke="black" stroke-width="2" stroke-miterlimit="10" stroke-linecap="round" stroke-linejoin="round"/>
<path d="M13.0701 22.8001C13.6911 22.1021 14.4761 21.3861 15.5221 21.0271C16.5811 20.6631 17.6381 20.6631 18.7971 20.7781M34.9501 22.8001C34.3291 22.1021 33.5441 21.3861 32.4981 21.0271C31.4391 20.6631 30.3821 20.6631 29.2231 20.7781M35.8901 32.6901C35.8901 36.2591 31.9151 39.0961 23.9501 39.0961C15.9831 39.0961 11.9601 36.2501 11.9601 32.6901H12.0541C12.0541 32.6901 24.1941 35.7531 35.7341 32.7561L35.8901 32.6901Z" stroke="black" stroke-width="2" stroke-miterlimit="10" stroke-linecap="round" stroke-linejoin="round"/>
<path d="M30.85 43.5601C30.85 44.2931 30.292 44.8881 29.604 44.8881C28.916 44.8881 28.358 44.2941 28.358 43.5601V39.1731M34.358 36.3201V47.8001C34.358 48.6661 33.575 49.3681 32.609 49.3681C31.643 49.3681 30.86 48.6661 30.86 47.8001V43.0971" stroke="black" stroke-width="2" stroke-miterlimit="10" stroke-linecap="round" stroke-linejoin="round"/>
</svg>
