<svg width="35" height="35" viewBox="0 0 68 35" fill="none" xmlns="http://www.w3.org/2000/svg">
<path d="M43.2771 14.4005C40.0046 17.6636 35.0258 17.4911 32.9601 16.0141L32.8394 15.5456C36.556 14.6132 37.228 14.9827 40.1469 12.7138C41.8346 11.0243 43.2441 8.54132 43.1623 6.73481C44.927 6.68848 43.1623 6.73481 44.5303 6.68848C45.6654 9.09387 45.2184 12.3347 43.2791 14.4L43.2771 14.4005Z" fill="#FCEA2B" stroke="#FCEA2B" stroke-width="0.5" stroke-miterlimit="10" stroke-linecap="round" stroke-linejoin="round"/>
<path d="M44.0806 6.8149C45.403 6.7104 45.6081 12.3996 43.6692 14.4648C40.2214 17.1783 36.5837 17.4469 32.9051 15.7863C40.4902 17.1391 44.4376 11.9959 44.0811 6.81539L44.0806 6.8149Z" fill="#F1B31C" stroke="#F1B31C" stroke-width="0.5" stroke-miterlimit="10" stroke-linecap="round" stroke-linejoin="round"/>
<path d="M43.7531 5.78703L43.5866 4.72974M36.0687 15.9064C40.9482 15.1905 43.2126 13.1609 43.8612 9.23" stroke="black" stroke-width="0.5" stroke-miterlimit="10" stroke-linecap="round" stroke-linejoin="round"/>
<path d="M42.4237 15.2853C40.0553 17.0627 35.6889 17.6143 32.9482 15.9648L32.8275 15.4963C38.2095 14.9526 42.4053 12.0558 43.1591 6.7348C43.482 6.73382 44.5163 6.63721 44.5163 6.63721C46.1522 10.3587 45.0288 13.3284 42.4231 15.2828L42.4237 15.2853Z" stroke="black" stroke-width="0.5" stroke-miterlimit="10" stroke-linecap="round" stroke-linejoin="round"/>
<path d="M38.5873 14.4005C35.3148 17.6636 30.336 17.4911 28.2703 16.0141L28.1496 15.5456C31.8662 14.6132 32.5382 14.9827 35.4571 12.7138C37.1448 11.0243 38.5542 8.54132 38.4724 6.73481C40.2372 6.68848 38.4724 6.73481 39.8404 6.68848C40.9756 9.09387 40.5285 12.3347 38.5893 14.4L38.5873 14.4005Z" fill="#FCEA2B" stroke="#FCEA2B" stroke-width="0.5" stroke-miterlimit="10" stroke-linecap="round" stroke-linejoin="round"/>
<path d="M39.3907 6.8149C40.7132 6.7104 40.9183 12.3996 38.9793 14.4648C35.5316 17.1783 31.8939 17.4469 28.2153 15.7863C35.8004 17.1391 39.7478 11.9959 39.3913 6.81539L39.3907 6.8149Z" fill="#F1B31C" stroke="#F1B31C" stroke-width="0.5" stroke-miterlimit="10" stroke-linecap="round" stroke-linejoin="round"/>
<path d="M33.8975 14.4005C30.6251 17.6636 25.6462 17.4911 23.5805 16.0141L23.4598 15.5456C27.1764 14.6132 27.8484 14.9827 30.7673 12.7138C32.455 11.0243 33.8645 8.54132 33.7827 6.73481C35.5475 6.68848 33.7827 6.73481 35.1507 6.68848C36.2858 9.09387 35.8388 12.3347 33.8996 14.4L33.8975 14.4005Z" fill="#FCEA2B" stroke="#FCEA2B" stroke-width="0.5" stroke-miterlimit="10" stroke-linecap="round" stroke-linejoin="round"/>
<path d="M34.701 6.8149C36.0234 6.7104 36.2285 12.3996 34.2896 14.4648C30.8418 17.1783 27.2042 17.4469 23.5256 15.7863C31.1107 17.1391 35.0581 11.9959 34.7016 6.81539L34.701 6.8149Z" fill="#F1B31C" stroke="#F1B31C" stroke-width="0.5" stroke-miterlimit="10" stroke-linecap="round" stroke-linejoin="round"/>
<path d="M34.3739 5.78703L34.2073 4.72974M26.6895 15.9064C31.5689 15.1905 33.8333 13.1609 34.482 9.23" stroke="black" stroke-width="0.5" stroke-miterlimit="10" stroke-linecap="round" stroke-linejoin="round"/>
<path d="M33.0444 15.2853C30.676 17.0627 26.3096 17.6143 23.5689 15.9648L23.4482 15.4963C28.8302 14.9526 33.026 12.0558 33.7798 6.7348C34.1027 6.73382 35.137 6.63721 35.137 6.63721C36.7729 10.3587 35.6495 13.3284 33.0438 15.2828L33.0444 15.2853Z" stroke="black" stroke-width="0.5" stroke-miterlimit="10" stroke-linecap="round" stroke-linejoin="round"/>
<path d="M39.0635 5.78727L38.8969 4.72998M31.379 15.9067C36.2585 15.1907 38.5229 13.1612 39.1716 9.23024" stroke="black" stroke-width="0.5" stroke-miterlimit="10" stroke-linecap="round" stroke-linejoin="round"/>
<path d="M37.7341 15.2855C35.3656 17.063 30.9992 17.6145 28.2586 15.965L28.1379 15.4965C33.5199 14.9528 37.7156 12.056 38.4695 6.73505C38.7923 6.73406 39.8267 6.63745 39.8267 6.63745C41.4626 10.3589 40.3392 13.3287 37.7335 15.2831L37.7341 15.2855Z" stroke="black" stroke-width="0.5" stroke-miterlimit="10" stroke-linecap="round" stroke-linejoin="round"/>
<path d="M33.8975 13.4547C30.6251 16.7178 25.6462 16.5453 23.5805 15.0683L23.4598 14.5998C27.1764 13.6674 27.8484 14.0369 30.7673 11.768C32.455 10.0785 33.8645 7.59552 33.7827 5.78901C35.5475 5.74268 33.7827 5.78901 35.1507 5.74268C36.2858 8.14807 35.8388 11.3889 33.8996 13.4542L33.8975 13.4547Z" fill="#FCEA2B" stroke="#FCEA2B" stroke-width="0.5" stroke-miterlimit="10" stroke-linecap="round" stroke-linejoin="round"/>
<path d="M34.701 5.86885C36.0234 5.76436 36.2285 11.4535 34.2896 13.5188C30.8418 16.2323 27.2042 16.5009 23.5256 14.8403C31.1107 16.1931 35.0581 11.0498 34.7016 5.86935L34.701 5.86885Z" fill="#F1B31C" stroke="#F1B31C" stroke-width="0.5" stroke-miterlimit="10" stroke-linecap="round" stroke-linejoin="round"/>
<path d="M34.3739 4.84123L34.2073 3.78394M26.6895 14.9606C31.5689 14.2447 33.8333 12.2151 34.482 8.28419" stroke="black" stroke-width="0.5" stroke-miterlimit="10" stroke-linecap="round" stroke-linejoin="round"/>
<path d="M33.0444 14.3395C30.676 16.1169 26.3096 16.6685 23.5689 15.019L23.4482 14.5505C28.8302 14.0068 33.026 11.11 33.7798 5.789C34.1027 5.78802 35.137 5.69141 35.137 5.69141C36.7729 9.41287 35.6495 12.3826 33.0438 14.337L33.0444 14.3395Z" stroke="black" stroke-width="0.5" stroke-miterlimit="10" stroke-linecap="round" stroke-linejoin="round"/>
<path d="M52.5302 20.517H52.5203L52.5041 20.5165C51.0394 20.4673 47.9111 19.3767 45.4703 15.6021C45.0163 15.0091 44.792 14.3408 44.8206 13.6658C44.8492 12.9907 45.1295 12.3333 45.6328 11.7608C46.9125 10.3429 49.4471 9.57385 52.5817 9.66183C55.6813 9.58432 58.2016 10.3513 59.4761 11.7663C60.4899 12.8923 60.538 14.2979 59.6093 15.6226C58.5441 17.2651 55.6949 20.4128 52.5699 20.5165L52.5302 20.517Z" fill="#EA5A47"/>
<path d="M59.4501 11.7661C58.1341 10.3508 55.5317 9.58378 52.3312 9.66129C51.8874 9.64939 51.443 9.65446 51 9.67648C53.6206 9.80295 55.7243 10.5409 56.8633 11.7661C57.9096 12.8921 57.9597 14.2975 57.0008 15.6223C56.0501 17.0416 53.7246 19.5827 51.0289 20.3149C51.4178 20.4272 51.8305 20.4953 52.251 20.5165L52.2678 20.517H52.278C52.2913 20.517 52.3103 20.517 52.319 20.5165C55.5458 20.4128 58.4877 17.265 59.5875 15.6223C60.5469 14.2975 60.4968 12.8921 59.4501 11.7659V11.7661Z" fill="#D22F27"/>
<path d="M49.9973 13.2758C49.9264 13.2757 49.8572 13.2554 49.7982 13.2175C49.7392 13.1795 49.6932 13.1256 49.6659 13.0625C49.5434 12.763 49.5021 12.4383 49.5459 12.1191C47.0555 12.1566 46.4984 11.4275 46.4092 11.2732C46.369 11.2037 46.3548 11.1231 46.369 11.0447C46.3831 10.9663 46.4247 10.895 46.4869 10.8428C47.2726 10.1771 48.214 9.70533 49.2303 9.46804C50.2466 9.23074 51.3074 9.23499 52.3216 9.48041V9.15717C52.3218 8.9692 52.3993 8.78899 52.537 8.65608C52.6748 8.52317 52.8615 8.44843 53.0563 8.44824H53.506C53.7008 8.44843 53.8876 8.52317 54.0253 8.65608C54.1631 8.78899 54.2406 8.9692 54.2407 9.15717V9.49706C55.2645 9.2366 56.3389 9.22311 57.3693 9.45779C58.3998 9.69246 59.3545 10.1681 60.1495 10.8428C60.2117 10.895 60.2533 10.9663 60.2674 11.0447C60.2816 11.1231 60.2673 11.2037 60.2272 11.2732C60.1373 11.4282 59.5712 12.1611 57.047 12.1184C57.0615 12.4483 56.999 12.7771 56.8641 13.0805C56.8345 13.139 56.7885 13.1884 56.7313 13.2229C56.6741 13.2574 56.608 13.2757 56.5406 13.2758C55.2515 13.2758 53.8482 12.5901 53.332 12.3119C52.1584 13.0132 50.1325 13.2623 50.0419 13.2727C50.0271 13.2745 50.0122 13.2756 49.9973 13.2758V13.2758Z" fill="#5C9E31"/>
<path d="M47.9091 14.4828C48.7626 14.4828 49.4546 14.2126 49.4546 13.8793C49.4546 13.5461 48.7626 13.2759 47.9091 13.2759C47.0556 13.2759 46.3636 13.5461 46.3636 13.8793C46.3636 14.2126 47.0556 14.4828 47.9091 14.4828Z" fill="#D22F27"/>
<path d="M51.7727 14.4828C52.1995 14.4828 52.5455 14.2126 52.5455 13.8793C52.5455 13.5461 52.1995 13.2759 51.7727 13.2759C51.346 13.2759 51 13.5461 51 13.8793C51 14.2126 51.346 14.4828 51.7727 14.4828Z" fill="#D22F27"/>
<path d="M54.0909 14.4828C54.9445 14.4828 55.6364 14.2126 55.6364 13.8793C55.6364 13.5461 54.9445 13.2759 54.0909 13.2759C53.2374 13.2759 52.5455 13.5461 52.5455 13.8793C52.5455 14.2126 53.2374 14.4828 54.0909 14.4828Z" fill="#D22F27"/>
<path d="M48.4131 14.0019V13.462M51.5627 14.0019V13.462M54.3185 14.0019V13.462M57.0744 14.0019V13.462M55.8933 16.2542V15.7145M52.7438 16.2542V15.7145M49.5942 16.2542V15.7145M51.169 18.8246V18.2847M54.3185 18.8246V18.2847M56.4607 10.9502C59.5465 11.0573 60.0472 10.4459 60.0472 10.4459C59.1583 9.91559 58.0793 9.5543 56.9193 9.39856C55.7593 9.24281 54.5595 9.29813 53.441 9.55891V8.94268C53.441 8.86853 53.3977 8.79741 53.3206 8.74498C53.2435 8.69254 53.139 8.66309 53.03 8.66309H52.5375C52.4284 8.66309 52.3239 8.69254 52.2468 8.74498C52.1697 8.79741 52.1264 8.86853 52.1264 8.94268V9.54177C51.0172 9.2928 49.8315 9.24528 48.6869 9.40391C47.5424 9.56254 46.4785 9.92182 45.6009 10.4462C45.6009 10.4462 46.1017 11.0573 49.1875 10.9504C49.0337 11.2429 49.0337 11.5626 49.1875 11.8551C49.1875 11.8551 51.6599 11.6468 52.8241 11.0632C52.8241 11.0632 54.7118 11.8551 56.3536 11.8551C56.5271 11.5684 56.5646 11.252 56.4607 10.9502V10.9502Z" stroke="black" stroke-linecap="round" stroke-linejoin="round"/>
<path d="M59.4402 11.5801C59.6113 11.714 59.7679 11.8563 59.9087 12.0056C60.9166 13.0755 60.9614 14.4167 60.0307 15.6853C58.9229 17.3171 55.9847 20.4424 52.83 20.5429L52.8123 20.5434L52.7946 20.5429C49.6481 20.4414 46.7167 17.3123 45.6064 15.6719C45.1502 15.106 44.9235 14.4676 44.9494 13.8224C44.9754 13.1771 45.2531 12.5482 45.7541 12C45.893 11.853 46.047 11.7128 46.2151 11.5806" stroke="black" stroke-linecap="round" stroke-linejoin="round"/>
<path d="M26.0715 5.67554H23.2972C23.2972 6.15267 23.5841 6.61027 24.0949 6.94765C24.6057 7.28504 25.2985 7.47458 26.0209 7.47458H28.7952C28.7998 6.48389 27.5759 5.67554 26.0715 5.67554Z" fill="#00D26A"/>
<path d="M29.6786 7.31043C29.0621 7.48365 28.3628 7.48365 27.7463 7.31043C25.814 6.77254 23.5872 7.38944 22.8142 8.68098C22.0965 9.8808 22.0965 11.216 22.8142 12.4158C23.2004 13.06 23.9341 13.587 24.8737 13.8951C25.8133 14.2031 26.8924 14.2705 27.9027 14.0842C28.4318 13.9869 28.9931 13.9869 29.5222 14.0842C30.5326 14.2722 31.6127 14.2056 32.5529 13.8973C33.4932 13.589 34.2265 13.0611 34.6107 12.4158C35.3285 11.2154 35.3285 9.88136 34.6107 8.68098C33.8424 7.38944 31.6156 6.77254 29.6786 7.31043V7.31043Z" fill="#86D72F"/>
<path d="M35.8634 13.1603L34.7327 12.5164L27.9447 16.3823L29.0754 17.0263C30.9497 18.0938 33.9891 18.0938 35.8634 17.0263C37.7377 15.9588 37.7377 14.2278 35.8634 13.1603V13.1603Z" fill="url(#paint0_linear_13_4638)"/>
<path d="M35.8634 13.1603L34.7327 12.5164L27.9447 16.3823L29.0754 17.0263C30.9497 18.0938 33.9891 18.0938 35.8634 17.0263C37.7377 15.9588 37.7377 14.2278 35.8634 13.1603V13.1603Z" fill="url(#paint1_radial_13_4638)"/>
<path d="M31.3406 17.1858C33.9929 17.1858 36.1432 15.9611 36.1432 14.4506C36.1432 12.94 33.9929 11.7153 31.3406 11.7153C28.6882 11.7153 26.538 12.94 26.538 14.4506C26.538 15.9611 28.6882 17.1858 31.3406 17.1858V17.1858Z" fill="#ABD837"/>
<path d="M31.3406 17.1858C33.9929 17.1858 36.1432 15.9611 36.1432 14.4506C36.1432 12.94 33.9929 11.7153 31.3406 11.7153C28.6882 11.7153 26.538 12.94 26.538 14.4506C26.538 15.9611 28.6882 17.1858 31.3406 17.1858V17.1858Z" fill="url(#paint2_radial_13_4638)"/>
<path d="M31.3406 17.1858C33.9929 17.1858 36.1432 15.9611 36.1432 14.4506C36.1432 12.94 33.9929 11.7153 31.3406 11.7153C28.6882 11.7153 26.538 12.94 26.538 14.4506C26.538 15.9611 28.6882 17.1858 31.3406 17.1858V17.1858Z" fill="url(#paint3_radial_13_4638)"/>
<path d="M31.3406 17.1858C33.9929 17.1858 36.1432 15.9611 36.1432 14.4506C36.1432 12.94 33.9929 11.7153 31.3406 11.7153C28.6882 11.7153 26.538 12.94 26.538 14.4506C26.538 15.9611 28.6882 17.1858 31.3406 17.1858V17.1858Z" fill="url(#paint4_radial_13_4638)"/>
<path d="M31.341 15.6773C31.9123 15.6773 32.4602 15.548 32.8642 15.3179C33.2681 15.0879 33.4951 14.7758 33.4951 14.4504C33.4951 14.1251 33.2681 13.813 32.8642 13.583C32.4602 13.3529 31.9123 13.2236 31.341 13.2236C30.7697 13.2236 30.2218 13.3529 29.8178 13.583C29.4139 13.813 29.1869 14.1251 29.1869 14.4504C29.1869 14.7758 29.4139 15.0879 29.8178 15.3179C30.2218 15.548 30.7697 15.6773 31.341 15.6773V15.6773Z" fill="#E5F892"/>
<g filter="url(#filter0_f_13_4638)">
<path d="M33.4947 13.4071C33.5943 13.4071 33.6898 13.3846 33.7603 13.3444C33.8307 13.3043 33.8703 13.2499 33.8703 13.1932C33.8703 13.1364 33.8307 13.082 33.7603 13.0419C33.6898 13.0018 33.5943 12.9792 33.4947 12.9792C33.3951 12.9792 33.2995 13.0018 33.2291 13.0419C33.1586 13.082 33.119 13.1364 33.119 13.1932C33.119 13.2499 33.1586 13.3043 33.2291 13.3444C33.2995 13.3846 33.3951 13.4071 33.4947 13.4071V13.4071Z" fill="#7BAE29"/>
</g>
<g filter="url(#filter1_f_13_4638)">
<path d="M34.4368 14.4921C34.4861 14.4921 34.535 14.4865 34.5806 14.4758C34.6261 14.465 34.6675 14.4493 34.7024 14.4294C34.7373 14.4095 34.765 14.386 34.7838 14.36C34.8027 14.334 34.8124 14.3062 34.8124 14.2781C34.8124 14.25 34.8027 14.2222 34.7838 14.1963C34.765 14.1703 34.7373 14.1467 34.7024 14.1269C34.6675 14.107 34.6261 14.0912 34.5806 14.0805C34.535 14.0697 34.4861 14.0642 34.4368 14.0642C34.3372 14.0642 34.2416 14.0867 34.1712 14.1269C34.1008 14.167 34.0612 14.2214 34.0612 14.2781C34.0612 14.3349 34.1008 14.3893 34.1712 14.4294C34.2416 14.4695 34.3372 14.4921 34.4368 14.4921V14.4921Z" fill="#7BAE29"/>
</g>
<g filter="url(#filter2_f_13_4638)">
<path d="M33.9891 15.5748C34.0888 15.5748 34.1843 15.5523 34.2548 15.5122C34.3252 15.4721 34.3648 15.4176 34.3648 15.3609C34.3648 15.3042 34.3252 15.2498 34.2548 15.2096C34.1843 15.1695 34.0888 15.147 33.9891 15.147C33.8895 15.147 33.794 15.1695 33.7235 15.2096C33.6531 15.2498 33.6135 15.3042 33.6135 15.3609C33.6135 15.4176 33.6531 15.4721 33.7235 15.5122C33.794 15.5523 33.8895 15.5748 33.9891 15.5748V15.5748Z" fill="#7BAE29"/>
</g>
<g filter="url(#filter3_f_13_4638)">
<path d="M32.5473 16.3868C32.6469 16.3868 32.7424 16.3643 32.8129 16.3242C32.8833 16.2841 32.9229 16.2296 32.9229 16.1729C32.9229 16.1162 32.8833 16.0618 32.8129 16.0216C32.7424 15.9815 32.6469 15.959 32.5473 15.959C32.4476 15.959 32.3521 15.9815 32.2816 16.0216C32.2112 16.0618 32.1716 16.1162 32.1716 16.1729C32.1716 16.2296 32.2112 16.2841 32.2816 16.3242C32.3521 16.3643 32.4476 16.3868 32.5473 16.3868Z" fill="#7BAE29"/>
</g>
<g filter="url(#filter4_f_13_4638)">
<path d="M30.5586 16.5096C30.6583 16.5096 30.7538 16.4871 30.8242 16.447C30.8947 16.4069 30.9343 16.3525 30.9343 16.2957C30.9343 16.239 30.8947 16.1846 30.8242 16.1444C30.7538 16.1043 30.6583 16.0818 30.5586 16.0818C30.459 16.0818 30.3635 16.1043 30.293 16.1444C30.2226 16.1846 30.183 16.239 30.183 16.2957C30.183 16.3525 30.2226 16.4069 30.293 16.447C30.3635 16.4871 30.459 16.5096 30.5586 16.5096Z" fill="#7BAE29"/>
</g>
<g filter="url(#filter5_f_13_4638)">
<path d="M28.8415 16.0048C28.9411 16.0048 29.0367 15.9822 29.1071 15.9421C29.1776 15.902 29.2171 15.8476 29.2171 15.7908C29.2171 15.7341 29.1776 15.6797 29.1071 15.6396C29.0367 15.5994 28.9411 15.5769 28.8415 15.5769C28.7419 15.5769 28.6463 15.5994 28.5759 15.6396C28.5055 15.6797 28.4659 15.7341 28.4659 15.7908C28.4659 15.8476 28.5055 15.902 28.5759 15.9421C28.6463 15.9822 28.7419 16.0048 28.8415 16.0048Z" fill="#7BAE29"/>
</g>
<g filter="url(#filter6_f_13_4638)">
<path d="M27.8715 14.8785C27.9208 14.8785 27.9696 14.873 28.0152 14.8623C28.0608 14.8515 28.1022 14.8357 28.1371 14.8159C28.172 14.796 28.1996 14.7724 28.2185 14.7465C28.2374 14.7205 28.2471 14.6927 28.2471 14.6646C28.2471 14.6365 28.2374 14.6087 28.2185 14.5827C28.1996 14.5568 28.172 14.5332 28.1371 14.5133C28.1022 14.4935 28.0608 14.4777 28.0152 14.467C27.9696 14.4562 27.9208 14.4507 27.8715 14.4507C27.7719 14.4507 27.6763 14.4732 27.6059 14.5133C27.5354 14.5535 27.4958 14.6079 27.4958 14.6646C27.4958 14.7213 27.5354 14.7758 27.6059 14.8159C27.6763 14.856 27.7719 14.8785 27.8715 14.8785V14.8785Z" fill="#7BAE29"/>
</g>
<g filter="url(#filter7_f_13_4638)">
<path d="M28.3203 13.7802C28.4199 13.7802 28.5155 13.7576 28.5859 13.7175C28.6563 13.6774 28.6959 13.623 28.6959 13.5662C28.6959 13.5095 28.6563 13.4551 28.5859 13.415C28.5155 13.3748 28.4199 13.3523 28.3203 13.3523C28.2207 13.3523 28.1251 13.3748 28.0547 13.415C27.9842 13.4551 27.9447 13.5095 27.9447 13.5662C27.9447 13.623 27.9842 13.6774 28.0547 13.7175C28.1251 13.7576 28.2207 13.7802 28.3203 13.7802Z" fill="#7BAE29"/>
</g>
<path d="M33.6135 13.3458C33.6628 13.3458 33.7116 13.3403 33.7572 13.3295C33.8028 13.3188 33.8442 13.303 33.8791 13.2832C33.914 13.2633 33.9416 13.2397 33.9605 13.2138C33.9794 13.1878 33.9891 13.16 33.9891 13.1319C33.9891 13.1038 33.9794 13.076 33.9605 13.05C33.9416 13.0241 33.914 13.0005 33.8791 12.9806C33.8442 12.9608 33.8028 12.945 33.7572 12.9343C33.7116 12.9235 33.6628 12.918 33.6135 12.918C33.5139 12.918 33.4183 12.9405 33.3479 12.9806C33.2774 13.0207 33.2379 13.0752 33.2379 13.1319C33.2379 13.1886 33.2774 13.243 33.3479 13.2832C33.4183 13.3233 33.5139 13.3458 33.6135 13.3458Z" fill="url(#paint5_radial_13_4638)"/>
<path d="M29.0256 15.9589C29.1252 15.9589 29.2207 15.9363 29.2912 15.8962C29.3616 15.8561 29.4012 15.8017 29.4012 15.7449C29.4012 15.6882 29.3616 15.6338 29.2912 15.5937C29.2207 15.5535 29.1252 15.531 29.0256 15.531C28.9259 15.531 28.8304 15.5535 28.76 15.5937C28.6895 15.6338 28.6499 15.6882 28.6499 15.7449C28.6499 15.8017 28.6895 15.8561 28.76 15.8962C28.8304 15.9363 28.9259 15.9589 29.0256 15.9589Z" fill="url(#paint6_radial_13_4638)"/>
<path d="M31.8815 12.8331C31.9811 12.8331 32.0766 12.8106 32.1471 12.7705C32.2175 12.7304 32.2571 12.6759 32.2571 12.6192C32.2571 12.5625 32.2175 12.5081 32.1471 12.4679C32.0766 12.4278 31.9811 12.4053 31.8815 12.4053C31.7818 12.4053 31.6863 12.4278 31.6158 12.4679C31.5454 12.5081 31.5058 12.5625 31.5058 12.6192C31.5058 12.6759 31.5454 12.7304 31.6158 12.7705C31.6863 12.8106 31.7818 12.8331 31.8815 12.8331V12.8331Z" fill="url(#paint7_linear_13_4638)"/>
<g filter="url(#filter8_f_13_4638)">
<path d="M31.7162 12.8702C31.8158 12.8702 31.9113 12.8477 31.9818 12.8076C32.0522 12.7675 32.0918 12.713 32.0918 12.6563C32.0918 12.5996 32.0522 12.5452 31.9818 12.505C31.9113 12.4649 31.8158 12.4424 31.7162 12.4424C31.6165 12.4424 31.521 12.4649 31.4506 12.505C31.3801 12.5452 31.3405 12.5996 31.3405 12.6563C31.3405 12.713 31.3801 12.7675 31.4506 12.8076C31.521 12.8477 31.6165 12.8702 31.7162 12.8702Z" fill="#7BAE29"/>
</g>
<path d="M31.8815 12.8331C31.9811 12.8331 32.0766 12.8106 32.1471 12.7705C32.2175 12.7304 32.2571 12.6759 32.2571 12.6192C32.2571 12.5625 32.2175 12.5081 32.1471 12.4679C32.0766 12.4278 31.9811 12.4053 31.8815 12.4053C31.7818 12.4053 31.6863 12.4278 31.6158 12.4679C31.5454 12.5081 31.5058 12.5625 31.5058 12.6192C31.5058 12.6759 31.5454 12.7304 31.6158 12.7705C31.6863 12.8106 31.7818 12.8331 31.8815 12.8331V12.8331Z" fill="url(#paint8_radial_13_4638)"/>
<path d="M30.7541 16.472C30.8538 16.472 30.9493 16.4495 31.0197 16.4094C31.0902 16.3693 31.1298 16.3149 31.1298 16.2581C31.1298 16.2014 31.0902 16.147 31.0197 16.1068C30.9493 16.0667 30.8538 16.0442 30.7541 16.0442C30.6545 16.0442 30.559 16.0667 30.4885 16.1068C30.4181 16.147 30.3785 16.2014 30.3785 16.2581C30.3785 16.3149 30.4181 16.3693 30.4885 16.4094C30.559 16.4495 30.6545 16.472 30.7541 16.472V16.472Z" fill="url(#paint9_radial_13_4638)"/>
<g filter="url(#filter9_f_13_4638)">
<path d="M29.7768 13.0402C29.8764 13.0402 29.9719 13.0176 30.0424 12.9775C30.1128 12.9374 30.1524 12.883 30.1524 12.8262C30.1524 12.7695 30.1128 12.7151 30.0424 12.675C29.9719 12.6348 29.8764 12.6123 29.7768 12.6123C29.6772 12.6123 29.5816 12.6348 29.5112 12.675C29.4407 12.7151 29.4012 12.7695 29.4012 12.8262C29.4012 12.883 29.4407 12.9374 29.5112 12.9775C29.5816 13.0176 29.6772 13.0402 29.7768 13.0402Z" fill="#7BAE29"/>
</g>
<path d="M29.9492 12.9791C30.0489 12.9791 30.1444 12.9566 30.2148 12.9165C30.2853 12.8763 30.3249 12.8219 30.3249 12.7652C30.3249 12.7085 30.2853 12.654 30.2148 12.6139C30.1444 12.5738 30.0489 12.5513 29.9492 12.5513C29.8496 12.5513 29.7541 12.5738 29.6836 12.6139C29.6132 12.654 29.5736 12.7085 29.5736 12.7652C29.5736 12.8219 29.6132 12.8763 29.6836 12.9165C29.7541 12.9566 29.8496 12.9791 29.9492 12.9791V12.9791Z" fill="url(#paint10_radial_13_4638)"/>
<path d="M32.6896 16.3258C32.7893 16.3258 32.8848 16.3033 32.9553 16.2631C33.0257 16.223 33.0653 16.1686 33.0653 16.1119C33.0653 16.0551 33.0257 16.0007 32.9553 15.9606C32.8848 15.9205 32.7893 15.8979 32.6896 15.8979C32.59 15.8979 32.4945 15.9205 32.424 15.9606C32.3536 16.0007 32.314 16.0551 32.314 16.1119C32.314 16.1686 32.3536 16.223 32.424 16.2631C32.4945 16.3033 32.59 16.3258 32.6896 16.3258Z" fill="url(#paint11_radial_13_4638)"/>
<path d="M28.5119 13.7279C28.6115 13.7279 28.7071 13.7054 28.7775 13.6652C28.848 13.6251 28.8875 13.5707 28.8875 13.514C28.8875 13.4572 28.848 13.4028 28.7775 13.3627C28.7071 13.3226 28.6115 13.3 28.5119 13.3C28.4123 13.3 28.3168 13.3226 28.2463 13.3627C28.1759 13.4028 28.1363 13.4572 28.1363 13.514C28.1363 13.5707 28.1759 13.6251 28.2463 13.6652C28.3168 13.7054 28.4123 13.7279 28.5119 13.7279V13.7279Z" fill="url(#paint12_radial_13_4638)"/>
<path d="M34.1271 15.5748C34.2267 15.5748 34.3223 15.5523 34.3927 15.5122C34.4632 15.4721 34.5027 15.4176 34.5027 15.3609C34.5027 15.3042 34.4632 15.2498 34.3927 15.2096C34.3223 15.1695 34.2267 15.147 34.1271 15.147C34.0275 15.147 33.932 15.1695 33.8615 15.2096C33.7911 15.2498 33.7515 15.3042 33.7515 15.3609C33.7515 15.4176 33.7911 15.4721 33.8615 15.5122C33.932 15.5523 34.0275 15.5748 34.1271 15.5748Z" fill="url(#paint13_radial_13_4638)"/>
<path d="M28.0903 14.8129C28.1899 14.8129 28.2854 14.7903 28.3559 14.7502C28.4263 14.7101 28.4659 14.6557 28.4659 14.5989C28.4659 14.5422 28.4263 14.4878 28.3559 14.4477C28.2854 14.4075 28.1899 14.385 28.0903 14.385C27.9907 14.385 27.8951 14.4075 27.8247 14.4477C27.7542 14.4878 27.7147 14.5422 27.7147 14.5989C27.7147 14.6557 27.7542 14.7101 27.8247 14.7502C27.8951 14.7903 27.9907 14.8129 28.0903 14.8129V14.8129Z" fill="url(#paint14_radial_13_4638)"/>
<path d="M34.5487 14.4921C34.5981 14.4921 34.6469 14.4865 34.6925 14.4758C34.7381 14.465 34.7795 14.4493 34.8144 14.4294C34.8492 14.4095 34.8769 14.386 34.8958 14.36C34.9147 14.334 34.9244 14.3062 34.9244 14.2781C34.9244 14.25 34.9147 14.2222 34.8958 14.1963C34.8769 14.1703 34.8492 14.1467 34.8144 14.1269C34.7795 14.107 34.7381 14.0912 34.6925 14.0805C34.6469 14.0697 34.5981 14.0642 34.5487 14.0642C34.4491 14.0642 34.3536 14.0867 34.2831 14.1269C34.2127 14.167 34.1731 14.2214 34.1731 14.2781C34.1731 14.3349 34.2127 14.3893 34.2831 14.4294C34.3536 14.4695 34.4491 14.4921 34.5487 14.4921V14.4921Z" fill="url(#paint15_radial_13_4638)"/>
<path d="M34.5861 16.6055C35.0948 16.6055 35.5072 16.3707 35.5072 16.081C35.5072 15.7912 35.0948 15.5564 34.5861 15.5564C34.0775 15.5564 33.6651 15.7912 33.6651 16.081C33.6651 16.3707 34.0775 16.6055 34.5861 16.6055Z" fill="black" stroke="black" stroke-width="2" stroke-miterlimit="10" stroke-linejoin="round"/>
<path d="M31.6962 12.1233L37.4724 20.067M27.5835 17.7269L41.5237 14.4372M27.5912 14.4307L41.5084 17.7138M37.434 12.1429L31.6962 20.0299" stroke="black" stroke-width="2" stroke-linejoin="round"/>
<path d="M34.7727 21.7241C40.3207 21.7241 44.8182 19.2925 44.8182 16.2931C44.8182 13.2936 40.3207 10.8621 34.7727 10.8621C29.2248 10.8621 24.7273 13.2936 24.7273 16.2931C24.7273 19.2925 29.2248 21.7241 34.7727 21.7241Z" fill="#E27022"/>
<path d="M34 19.3102C38.2677 19.3102 41.7273 17.6891 41.7273 15.6895C41.7273 13.6899 38.2677 12.0688 34 12.0688C29.7324 12.0688 26.2727 13.6899 26.2727 15.6895C26.2727 17.6891 29.7324 19.3102 34 19.3102Z" fill="#F1B31C"/>
<path d="M31.9217 12.0688L37.685 19.3102M37.6467 12.0868L31.9217 19.2763M27.8182 17.177L41.7273 14.1782M27.8258 14.1722L41.712 17.165" stroke="#E27022" stroke-width="2" stroke-linejoin="round"/>
<path d="M44.5517 16.0809C44.5517 17.5862 43.5018 19.0298 41.6329 20.0942C39.764 21.1586 37.2292 21.7565 34.5862 21.7565C31.9432 21.7565 29.4084 21.1586 27.5395 20.0942C25.6706 19.0298 24.6207 17.5862 24.6207 16.0809C24.6207 14.5756 25.6706 13.132 27.5395 12.0676C29.4084 11.0032 31.9432 10.4053 34.5862 10.4053C37.2292 10.4053 39.764 11.0032 41.6329 12.0676C43.5018 13.132 44.5517 14.5756 44.5517 16.0809Z" stroke="black" stroke-miterlimit="10"/>
<path d="M42.1102 16.0808C42.1102 16.6435 41.9156 17.2007 41.5375 17.7206C41.1593 18.2405 40.6051 18.7129 39.9065 19.1108C39.2078 19.5087 38.3784 19.8243 37.4655 20.0397C36.5527 20.255 35.5743 20.3659 34.5862 20.3659C32.5907 20.3659 30.677 19.9144 29.266 19.1108C27.855 18.3072 27.0623 17.2172 27.0623 16.0808C27.0623 14.9443 27.855 13.8543 29.266 13.0507C30.677 12.2471 32.5907 11.7957 34.5862 11.7957C35.5743 11.7957 36.5527 11.9065 37.4655 12.1218C38.3784 12.3372 39.2078 12.6528 39.9065 13.0507C40.6051 13.4486 41.1593 13.921 41.5375 14.4409C41.9156 14.9608 42.1102 15.518 42.1102 16.0808Z" stroke="black" stroke-miterlimit="10"/>
<path d="M34.7727 16.8963C35.1995 16.8963 35.5455 16.6262 35.5455 16.2929C35.5455 15.9596 35.1995 15.6895 34.7727 15.6895C34.346 15.6895 34 15.9596 34 16.2929C34 16.6262 34.346 16.8963 34.7727 16.8963Z" fill="#E27022" stroke="#E27022" stroke-width="2" stroke-miterlimit="10" stroke-linejoin="round"/>
<path d="M15.6021 7.24462C11.02 7.1576 7.23335 8.73796 6.341 11.8971C5.44277 15.075 8.32532 18.172 15.517 18.102C23.1607 18.029 25.5178 14.7377 24.5051 11.6905C23.3486 8.22827 19.5238 7.32076 15.6021 7.24462V7.24462Z" fill="#FFBE1F"/>
<path d="M19.5363 10.8621C18.8606 10.8547 17.4041 11.4373 17.1141 11.5674C16.5278 11.8314 16.9598 12.0929 17.6355 11.9616C18.2866 11.8351 19.2956 11.555 19.5487 11.5538C19.8202 11.5525 20.604 11.7608 20.9342 11.8612C21.8846 12.1462 22.4122 11.8475 21.829 11.5612C21.5019 11.4013 20.3108 10.8708 19.5363 10.8621V10.8621ZM11.4857 10.8696C10.7143 10.8535 8.99245 11.5587 8.89988 11.5984C8.40925 11.8141 8.86594 12.0632 9.52011 11.9516C9.89657 11.8872 11.0877 11.5674 11.3746 11.5711C11.5875 11.5736 12.0504 11.7124 12.7169 11.8872C13.8093 12.1723 14.411 11.8773 13.6889 11.5624C12.9607 11.2451 12.1553 10.8832 11.4857 10.8696V10.8696ZM8.14388 12.6011C7.69645 12.5887 6.78308 12.9234 6.52697 13.0374C6.27085 13.1515 6.06411 13.2519 6.25851 13.3721C6.3912 13.4539 6.80777 13.4576 7.12251 13.3857C7.52674 13.294 7.94331 13.2035 8.10068 13.206C8.3568 13.211 9.372 13.5717 9.68674 13.6795C10.5075 13.9584 11.029 13.5841 10.5754 13.3684C10.091 13.1378 8.97085 12.6247 8.14388 12.6011V12.6011ZM15.5619 12.6309C14.7041 12.6259 13.1057 13.3114 12.8619 13.4254C12.2726 13.7018 12.72 14.0699 13.6365 13.8121C13.9111 13.734 15.0651 13.3362 15.4817 13.3485C15.7471 13.3572 16.6512 13.6423 17.2714 13.8171C18.0984 14.0513 18.6569 13.7811 18.086 13.4737C17.8299 13.3349 16.5092 12.6358 15.5619 12.6309V12.6309ZM22.727 12.5528C22.2302 12.5416 20.5608 13.2469 20.2769 13.3956C19.7863 13.6535 20.3232 13.8989 21.0761 13.6845C21.6099 13.532 22.7177 13.1961 22.8319 13.1936C22.9954 13.1887 23.4336 13.3213 23.7699 13.3994C24.131 13.4837 24.5444 13.4762 24.671 13.3808C24.8438 13.2519 24.5876 13.1254 24.3254 13.0275C23.8872 12.8614 23.159 12.5627 22.727 12.5528ZM19.379 14.5409C18.4841 14.5471 17.1974 15.1582 16.9628 15.3156C16.5154 15.6181 17.2035 15.7445 17.5892 15.6676C18.1724 15.5499 18.8019 15.276 19.4252 15.2301C19.6937 15.2103 20.5639 15.4867 20.7922 15.5437C21.9278 15.8288 22.3382 15.4433 21.5883 15.1446C21.0483 14.9301 20.0239 14.536 19.379 14.5409V14.5409ZM11.7449 14.5298C11.1154 14.5174 9.60959 15.0665 9.23314 15.2127C8.72708 15.4111 9.09428 15.7408 9.89657 15.5846C10.597 15.4482 11.4363 15.24 11.6709 15.245C11.9671 15.2512 12.6058 15.4507 12.9854 15.5548C14.1147 15.8672 14.6023 15.5239 13.8987 15.1966C13.3958 14.9648 12.4238 14.5434 11.7449 14.5298V14.5298Z" fill="#F79429"/>
<path d="M3.2304 3.10768C2.94842 2.92219 4.50085 2.49415 6.13694 2.47037C8.19135 2.44025 10.0753 2.71927 10.0753 2.71927C10.0753 2.71927 10.2458 2.02806 9.16122 1.25442C8.41755 0.723335 8.07979 0.46017 8.10148 0.271515C8.12318 0.081275 9.73448 -0.0344543 11.8818 0.455414C13.676 0.86443 15.0704 1.64441 15.0704 1.64441C15.0704 1.64441 16.2045 0.832723 17.698 0.441146C19.4333 -0.0122596 21.5589 -0.089941 21.7449 0.0892017C21.8874 0.22554 21.2119 0.625045 20.7688 1.13869C20.0716 1.94404 20.1119 2.6083 20.1119 2.6083C20.1119 2.6083 21.5558 2.06928 23.1052 1.91075C23.8922 1.8299 26.2131 1.75697 26.0582 2.04709C26.0334 2.09306 22.0671 3.51828 22.0671 3.51828L21.4753 5.00057C21.4753 5.00057 23.5793 4.38546 25.454 4.49801C26.4238 4.55667 26.2627 4.71203 26.2627 4.71203L21.7635 6.01835L21.0941 7.14869C21.0941 7.14869 22.3553 6.98699 23.5824 6.97906C24.1742 6.97589 25.1441 7.05516 25.1906 7.20894C25.2525 7.4071 22.4792 8.10782 22.4792 8.10782L15.0146 9.65511L7.92796 8.34245C7.92796 8.34245 4.74564 8.08562 4.74564 7.90807C4.74564 7.72892 5.38086 7.58942 6.33525 7.51332C7.43837 7.42454 8.57248 7.45625 8.57248 7.45625L5.2972 6.34493C5.2972 6.34493 3.28307 6.24822 3.10955 6.04689C2.93603 5.84555 4.01436 5.47775 4.67437 5.37946C6.34455 5.12898 8.24712 5.32873 8.24712 5.32873L7.17189 3.85595C7.16569 3.8512 3.53717 3.30901 3.2304 3.10768V3.10768Z" fill="#2F7C31"/>
<path d="M12.1695 4.8186C12.3368 4.85713 12.7706 4.38328 13.3066 4.07926C14.0873 3.63538 15.1035 3.30282 15.2801 3.30282C15.4505 3.30282 16.2468 3.58114 16.9377 3.96223C17.7742 4.42467 18.1491 4.81146 18.2327 4.83001C18.5426 4.89995 19.5464 4.08497 21.4797 3.39702C23.1496 2.80185 25.9225 2.26947 26.0682 2.44931C26.1146 2.50783 24.6925 2.93887 23.3293 3.81236C21.8329 4.77007 21.9785 5.80199 21.9785 5.80199C21.9785 5.80199 23.6918 5.23536 24.2433 5.10405C24.7049 4.99415 26.4554 4.68443 26.2571 4.85713C26.1146 4.97988 24.4416 5.74776 23.4811 6.1688C21.9692 6.82821 21.5231 7.8116 21.6687 7.86727C21.836 7.93149 22.9606 7.54756 23.6391 7.372C24.2836 7.20501 25.1944 7.06942 25.1883 7.09796C25.148 7.30777 23.5059 7.85299 22.3503 8.33113C21.4952 8.68367 19.8407 9.6899 15.1283 9.65422C11.2338 9.62568 8.95665 8.68653 7.53766 8.33541C6.55862 8.09278 4.73686 7.82159 4.75855 7.73881C4.77094 7.69314 5.62605 7.66174 6.20232 7.69457C7.79481 7.78306 8.81723 8.00429 8.92567 7.94006C9.0372 7.8744 7.51597 6.98663 4.88868 6.44712C3.6215 6.18593 3.06692 6.11885 3.09171 6.00181C3.101 5.95043 3.89415 5.88335 4.90417 5.86765C6.69494 5.84053 8.39897 6.13169 8.55698 6.14026C8.92876 6.16167 7.42612 4.96132 6.57411 4.49318C5.22329 3.74956 3.11649 3.55117 3.20324 3.3642C3.24972 3.26286 5.70351 3.24859 7.71736 3.59684C9.81486 3.95652 11.807 4.73581 12.1695 4.8186V4.8186Z" fill="#709921"/>
<path d="M15.6079 4.82799C15.422 4.8419 14.6877 5.06801 13.7218 5.64719C12.5792 6.33073 12.177 7.06993 12.4421 7.19516C12.7986 7.36213 13.2952 7.04384 13.9777 6.76904C14.7821 6.44553 15.4342 6.26986 15.5743 6.26986C15.7145 6.26986 16.3422 6.49597 16.8693 6.72381C17.5244 7.00906 18.0911 7.31691 18.3806 7.21255C18.8681 7.04036 18.1917 6.13941 17.43 5.64719C16.6195 5.12193 15.7694 4.81581 15.6079 4.82799V4.82799Z" fill="#2F7C31"/>
<path d="M26.7143 3.78394C20.6429 3.78394 17 6.01365 17 8.24336V14.9325H21.8571V8.24336C21.8571 5.45622 25.5 4.89879 29.1429 4.89879H38.8571C42.5 4.89879 46.1429 5.45622 46.1429 8.24336V17.1622C46.1429 17.4579 46.3987 17.7415 46.8542 17.9505C47.3096 18.1596 47.9273 18.2771 48.5714 18.2771C49.2155 18.2771 49.8332 18.1596 50.2887 17.9505C50.7441 17.7415 51 17.4579 51 17.1622V8.24336C51 6.01365 47.3571 3.78394 41.2857 3.78394H26.7143Z" fill="#E19747"/>
<path d="M2.42857 14.9327C1.78447 14.9327 1.16676 15.0501 0.711312 15.2592C0.255867 15.4683 0 15.7519 0 16.0475V18.2772C0 18.5729 0.255867 18.8565 0.711312 19.0656C1.16676 19.2746 1.78447 19.3921 2.42857 19.3921H3.15714L11.8004 32.6165C12.2506 33.3054 13.1725 33.9093 14.4293 34.3387C15.6862 34.768 17.211 35 18.7777 35.0001H49.2223C50.789 35 52.3138 34.768 53.5707 34.3387C54.8275 33.9093 55.7494 33.3054 56.1996 32.6165L64.8429 19.3921H65.5714C66.2155 19.3921 66.8332 19.2746 67.2887 19.0656C67.7441 18.8565 68 18.5729 68 18.2772V16.0475C68 15.7519 67.7441 15.4683 67.2887 15.2592C66.8332 15.0501 66.2155 14.9327 65.5714 14.9327H21.8571L19.4286 14.3752L17 14.9327H2.42857Z" fill="#F3AD61"/>
<path d="M4.0751 19.3918L3.37082 19.7152L4.16253 20.9281L7.30996 19.4821L10.7464 21.0597L7.30996 22.6361L4.40539 21.3016L6.5401 24.567L7.30996 24.2125L10.7464 25.7889L8.12353 26.9929L10.2922 30.3119L10.7464 30.5192L10.5035 30.6307L11.2952 31.8437L12.461 31.3086L15.8974 32.8838L13.5247 33.9731C14.0978 34.2462 14.7632 34.4725 15.5015 34.642L17.6144 33.672L20.5044 34.9998H25.0264L27.9164 33.6732L30.8112 34.9998H35.3332L38.2232 33.6732L41.1157 34.9998H45.6352L48.5277 33.6732L51.1578 34.8806C51.9981 34.7735 52.785 34.5996 53.482 34.3699L50.2447 32.8838L53.6787 31.3074L56.2554 32.4892L56.2991 32.4702L57.0714 31.2885L55.3957 30.5192L58.5042 29.0922L59.9784 26.8402L58.8321 27.3653L55.3957 25.7889L58.8321 24.2125L61.0348 25.2237L61.8265 24.0107L60.5491 23.4243L62.9218 22.3351L64.3935 20.0831L63.9831 20.2715L62.067 19.3918H55.5948L53.6787 20.2715L51.765 19.3918H45.2904L43.3767 20.2715L41.4557 19.3918H34.9835L33.0674 20.2715L31.1512 19.3918H24.6791L22.763 20.2715L20.8492 19.3918H14.3771L12.4634 20.2715L10.5472 19.3918H4.0751ZM9.02939 23.4243L12.4634 21.8479L15.8974 23.4243L12.4634 25.0007L9.02939 23.4243ZM14.178 25.7889L17.6144 24.2125L21.0484 25.7889L17.6144 27.3664L14.1804 25.7889H14.178ZM19.3314 23.4243L22.7654 21.8479L26.2018 23.4243L22.7654 25.0007L19.3314 23.4243V23.4243ZM19.3314 28.1546L22.7654 26.5771L26.2018 28.1546L22.7654 29.731L19.3314 28.1546ZM31.3528 25.7889L27.9188 27.3664L24.4848 25.7889L27.9188 24.2125L31.3528 25.7889ZM24.4824 30.5192L27.9188 28.9428L31.3528 30.5192L27.9188 32.0956L24.4824 30.5192ZM29.6358 28.1546L33.0698 26.5771L36.5038 28.1546L33.0698 29.731L29.6358 28.1546ZM29.6358 32.8838L33.0698 31.3074L36.5038 32.8838L33.0698 34.4614L29.6358 32.8838ZM43.3742 34.4614L39.9378 32.8838L43.3742 31.3074L46.8082 32.8838L43.3742 34.4614ZM34.7868 30.5192L38.2208 28.9428L41.6572 30.5192L38.2208 32.0956L34.7868 30.5192ZM48.5252 32.0956L45.0912 30.5192L48.5252 28.9428L51.9592 30.5192L48.5252 32.0956ZM53.6762 29.731L50.2422 28.1546L53.6762 26.5771L57.1127 28.1546L53.6762 29.731ZM48.5277 27.3664L45.0912 25.7889L48.5252 24.2125L51.9592 25.7889L48.5252 27.3664H48.5277ZM57.1127 23.4243L53.6762 25.0007L50.2422 23.4243L53.6762 21.8479L57.1127 23.4243ZM51.9592 21.0597L48.5252 22.6361L45.0912 21.0597L48.5252 19.4821L51.9592 21.0597ZM38.2208 19.4821L41.6572 21.0597L38.2208 22.6361L34.7868 21.0597L38.2208 19.4821ZM43.3742 21.8479L46.8082 23.4243L43.3742 25.0007L39.9378 23.4243L43.3742 21.8479ZM33.0698 21.8479L36.5038 23.4243L33.0698 25.0007L29.6358 23.4243L33.0698 21.8479ZM38.2208 24.2125L41.6572 25.7889L38.2208 27.3664L34.7868 25.7889L38.2208 24.2125ZM43.3742 29.731L39.9378 28.1546L43.3742 26.5771L46.8082 28.1546L43.3742 29.731ZM62.2637 21.0597L58.8297 22.6361L55.3932 21.0597L58.8297 19.4821L62.2637 21.0597ZM22.7654 31.3074L26.2018 32.8838L22.7654 34.4614L19.3314 32.8838L22.7654 31.3074ZM31.3528 21.0597L27.9188 22.6361L24.4848 21.0597L27.9188 19.4821L31.3528 21.0597ZM21.0484 30.5192L17.6144 32.0956L14.1804 30.5192L17.6144 28.9428L21.0484 30.5192ZM15.8974 28.1546L12.4634 29.731L9.02939 28.1546L12.4634 26.5771L15.8974 28.1546ZM17.6144 22.6361L14.1828 21.0597L17.6168 19.4821L21.0508 21.0597L17.6168 22.6361H17.6144Z" fill="#D3883E"/>
<defs>
<filter id="filter0_f_13_4638" x="32.119" y="11.9792" width="2.75125" height="2.42773" filterUnits="userSpaceOnUse" color-interpolation-filters="sRGB">
<feFlood flood-opacity="0" result="BackgroundImageFix"/>
<feBlend mode="normal" in="SourceGraphic" in2="BackgroundImageFix" result="shape"/>
<feGaussianBlur stdDeviation="0.5" result="effect1_foregroundBlur_13_4638"/>
</filter>
<filter id="filter1_f_13_4638" x="33.0612" y="13.0642" width="2.75125" height="2.42773" filterUnits="userSpaceOnUse" color-interpolation-filters="sRGB">
<feFlood flood-opacity="0" result="BackgroundImageFix"/>
<feBlend mode="normal" in="SourceGraphic" in2="BackgroundImageFix" result="shape"/>
<feGaussianBlur stdDeviation="0.5" result="effect1_foregroundBlur_13_4638"/>
</filter>
<filter id="filter2_f_13_4638" x="32.6135" y="14.147" width="2.75125" height="2.42773" filterUnits="userSpaceOnUse" color-interpolation-filters="sRGB">
<feFlood flood-opacity="0" result="BackgroundImageFix"/>
<feBlend mode="normal" in="SourceGraphic" in2="BackgroundImageFix" result="shape"/>
<feGaussianBlur stdDeviation="0.5" result="effect1_foregroundBlur_13_4638"/>
</filter>
<filter id="filter3_f_13_4638" x="31.1716" y="14.959" width="2.75125" height="2.42773" filterUnits="userSpaceOnUse" color-interpolation-filters="sRGB">
<feFlood flood-opacity="0" result="BackgroundImageFix"/>
<feBlend mode="normal" in="SourceGraphic" in2="BackgroundImageFix" result="shape"/>
<feGaussianBlur stdDeviation="0.5" result="effect1_foregroundBlur_13_4638"/>
</filter>
<filter id="filter4_f_13_4638" x="29.183" y="15.0818" width="2.75125" height="2.42773" filterUnits="userSpaceOnUse" color-interpolation-filters="sRGB">
<feFlood flood-opacity="0" result="BackgroundImageFix"/>
<feBlend mode="normal" in="SourceGraphic" in2="BackgroundImageFix" result="shape"/>
<feGaussianBlur stdDeviation="0.5" result="effect1_foregroundBlur_13_4638"/>
</filter>
<filter id="filter5_f_13_4638" x="27.4659" y="14.5769" width="2.75125" height="2.42773" filterUnits="userSpaceOnUse" color-interpolation-filters="sRGB">
<feFlood flood-opacity="0" result="BackgroundImageFix"/>
<feBlend mode="normal" in="SourceGraphic" in2="BackgroundImageFix" result="shape"/>
<feGaussianBlur stdDeviation="0.5" result="effect1_foregroundBlur_13_4638"/>
</filter>
<filter id="filter6_f_13_4638" x="26.4958" y="13.4507" width="2.75125" height="2.42773" filterUnits="userSpaceOnUse" color-interpolation-filters="sRGB">
<feFlood flood-opacity="0" result="BackgroundImageFix"/>
<feBlend mode="normal" in="SourceGraphic" in2="BackgroundImageFix" result="shape"/>
<feGaussianBlur stdDeviation="0.5" result="effect1_foregroundBlur_13_4638"/>
</filter>
<filter id="filter7_f_13_4638" x="26.9447" y="12.3523" width="2.75125" height="2.42773" filterUnits="userSpaceOnUse" color-interpolation-filters="sRGB">
<feFlood flood-opacity="0" result="BackgroundImageFix"/>
<feBlend mode="normal" in="SourceGraphic" in2="BackgroundImageFix" result="shape"/>
<feGaussianBlur stdDeviation="0.5" result="effect1_foregroundBlur_13_4638"/>
</filter>
<filter id="filter8_f_13_4638" x="30.3405" y="11.4424" width="2.75125" height="2.42773" filterUnits="userSpaceOnUse" color-interpolation-filters="sRGB">
<feFlood flood-opacity="0" result="BackgroundImageFix"/>
<feBlend mode="normal" in="SourceGraphic" in2="BackgroundImageFix" result="shape"/>
<feGaussianBlur stdDeviation="0.5" result="effect1_foregroundBlur_13_4638"/>
</filter>
<filter id="filter9_f_13_4638" x="28.4012" y="11.6123" width="2.75125" height="2.42773" filterUnits="userSpaceOnUse" color-interpolation-filters="sRGB">
<feFlood flood-opacity="0" result="BackgroundImageFix"/>
<feBlend mode="normal" in="SourceGraphic" in2="BackgroundImageFix" result="shape"/>
<feGaussianBlur stdDeviation="0.5" result="effect1_foregroundBlur_13_4638"/>
</filter>
<linearGradient id="paint0_linear_13_4638" x1="37.1018" y1="14.2802" x2="34.5885" y2="19.6321" gradientUnits="userSpaceOnUse">
<stop stop-color="#A76051"/>
<stop offset="0.469" stop-color="#9D5952"/>
<stop offset="0.733" stop-color="#8B5863"/>
<stop offset="1" stop-color="#67405C"/>
</linearGradient>
<radialGradient id="paint1_radial_13_4638" cx="0" cy="0" r="1" gradientUnits="userSpaceOnUse" gradientTransform="translate(36.3111 14.5122) rotate(138.775) scale(2.07027 5.42588)">
<stop stop-color="#D29280"/>
<stop offset="1" stop-color="#D2927F" stop-opacity="0"/>
</radialGradient>
<radialGradient id="paint2_radial_13_4638" cx="0" cy="0" r="1" gradientUnits="userSpaceOnUse" gradientTransform="translate(31.5436 14.5259) rotate(104.551) scale(3.24195 5.44959)">
<stop stop-color="#AEDD38" stop-opacity="0"/>
<stop offset="0.774" stop-color="#A7D335" stop-opacity="0.316"/>
<stop offset="0.863" stop-color="#98BD30"/>
<stop offset="0.913" stop-color="#7FA91C"/>
</radialGradient>
<radialGradient id="paint3_radial_13_4638" cx="0" cy="0" r="1" gradientUnits="userSpaceOnUse" gradientTransform="translate(31.0168 14.4505) rotate(53.0618) scale(3.74708 4.97391)">
<stop stop-color="#AEDE37" stop-opacity="0"/>
<stop offset="0.823" stop-color="#D6F76C" stop-opacity="0"/>
<stop offset="0.927" stop-color="#E4FF7E"/>
</radialGradient>
<radialGradient id="paint4_radial_13_4638" cx="0" cy="0" r="1" gradientUnits="userSpaceOnUse" gradientTransform="translate(31.3406 14.4506) rotate(90) scale(3.40429 5.97739)">
<stop stop-color="#B4E637"/>
<stop offset="1" stop-color="#B1E138" stop-opacity="0"/>
</radialGradient>
<radialGradient id="paint5_radial_13_4638" cx="0" cy="0" r="1" gradientUnits="userSpaceOnUse" gradientTransform="translate(33.7645 13.1136) rotate(167.289) scale(0.620072 0.388762)">
<stop offset="0.006" stop-color="#7B6D83"/>
<stop offset="0.368" stop-color="#533E60"/>
<stop offset="0.714" stop-color="#584D5D"/>
<stop offset="1" stop-color="#1C1C1C"/>
</radialGradient>
<radialGradient id="paint6_radial_13_4638" cx="0" cy="0" r="1" gradientUnits="userSpaceOnUse" gradientTransform="translate(29.1774 15.7266) rotate(167.289) scale(0.620072 0.388762)">
<stop offset="0.006" stop-color="#7B6D83"/>
<stop offset="0.368" stop-color="#533E60"/>
<stop offset="0.714" stop-color="#584D5D"/>
<stop offset="1" stop-color="#1C1C1C"/>
</radialGradient>
<linearGradient id="paint7_linear_13_4638" x1="32.1317" y1="12.4566" x2="31.8709" y2="12.915" gradientUnits="userSpaceOnUse">
<stop offset="0.006" stop-color="#513468"/>
<stop offset="1" stop-color="#1C1C1C"/>
</linearGradient>
<radialGradient id="paint8_radial_13_4638" cx="0" cy="0" r="1" gradientUnits="userSpaceOnUse" gradientTransform="translate(32.032 12.6011) rotate(167.289) scale(0.620072 0.388762)">
<stop offset="0.006" stop-color="#7B6D83"/>
<stop offset="0.368" stop-color="#533E60"/>
<stop offset="0.714" stop-color="#584D5D"/>
<stop offset="1" stop-color="#1C1C1C"/>
</radialGradient>
<radialGradient id="paint9_radial_13_4638" cx="0" cy="0" r="1" gradientUnits="userSpaceOnUse" gradientTransform="translate(30.9053 16.2397) rotate(167.289) scale(0.620072 0.388762)">
<stop offset="0.006" stop-color="#7B6D83"/>
<stop offset="0.368" stop-color="#533E60"/>
<stop offset="0.714" stop-color="#584D5D"/>
<stop offset="1" stop-color="#1C1C1C"/>
</radialGradient>
<radialGradient id="paint10_radial_13_4638" cx="0" cy="0" r="1" gradientUnits="userSpaceOnUse" gradientTransform="translate(30.1007 12.7465) rotate(167.289) scale(0.620072 0.388762)">
<stop offset="0.006" stop-color="#7B6D83"/>
<stop offset="0.368" stop-color="#533E60"/>
<stop offset="0.714" stop-color="#584D5D"/>
<stop offset="1" stop-color="#1C1C1C"/>
</radialGradient>
<radialGradient id="paint11_radial_13_4638" cx="0" cy="0" r="1" gradientUnits="userSpaceOnUse" gradientTransform="translate(32.8416 16.0935) rotate(167.289) scale(0.620072 0.388762)">
<stop offset="0.006" stop-color="#7B6D83"/>
<stop offset="0.368" stop-color="#533E60"/>
<stop offset="0.714" stop-color="#584D5D"/>
<stop offset="1" stop-color="#1C1C1C"/>
</radialGradient>
<radialGradient id="paint12_radial_13_4638" cx="0" cy="0" r="1" gradientUnits="userSpaceOnUse" gradientTransform="translate(28.6629 13.4957) rotate(167.289) scale(0.620072 0.388762)">
<stop offset="0.006" stop-color="#7B6D83"/>
<stop offset="0.368" stop-color="#533E60"/>
<stop offset="0.714" stop-color="#584D5D"/>
<stop offset="1" stop-color="#1C1C1C"/>
</radialGradient>
<radialGradient id="paint13_radial_13_4638" cx="0" cy="0" r="1" gradientUnits="userSpaceOnUse" gradientTransform="translate(34.2783 15.3427) rotate(167.289) scale(0.620072 0.388762)">
<stop offset="0.006" stop-color="#7B6D83"/>
<stop offset="0.368" stop-color="#533E60"/>
<stop offset="0.714" stop-color="#584D5D"/>
<stop offset="1" stop-color="#1C1C1C"/>
</radialGradient>
<radialGradient id="paint14_radial_13_4638" cx="0" cy="0" r="1" gradientUnits="userSpaceOnUse" gradientTransform="translate(28.2414 14.5806) rotate(167.289) scale(0.620072 0.388762)">
<stop offset="0.006" stop-color="#7B6D83"/>
<stop offset="0.368" stop-color="#533E60"/>
<stop offset="0.714" stop-color="#584D5D"/>
<stop offset="1" stop-color="#1C1C1C"/>
</radialGradient>
<radialGradient id="paint15_radial_13_4638" cx="0" cy="0" r="1" gradientUnits="userSpaceOnUse" gradientTransform="translate(34.6996 14.2596) rotate(167.289) scale(0.620072 0.388762)">
<stop offset="0.006" stop-color="#7B6D83"/>
<stop offset="0.368" stop-color="#533E60"/>
<stop offset="0.714" stop-color="#584D5D"/>
<stop offset="1" stop-color="#1C1C1C"/>
</radialGradient>
</defs>
</svg>
