<svg width="23" height="16" viewBox="0 0 23 16" fill="none" xmlns="http://www.w3.org/2000/svg">
<path d="M5 16V7.67342L2.36388 5.31099L0 4V14.5306C0 15.3436 0.672459 16 1.50003 16H5V16Z" fill="#4285F4"/>
<path d="M18 16H21.5C22.33 16 23 15.3412 23 14.5306V4L20.3225 5.50159L18 7.67337V16V16Z" fill="#34A853"/>
<path d="M4.42168 7.49997L4 4.17874L4.42168 1L11.475 5.50003L18.5283 1L19 4.00712L18.5283 7.49997L11.475 12L4.42168 7.49997Z" fill="#EA4335"/>
<path d="M18 1.50344V8L23 4.252V2.25302C23 0.39903 20.8825 -0.657877 19.4001 0.454001L18 1.50344Z" fill="#FBBC04"/>
<path d="M0 4.25201L2.29959 5.97587L5 8V1.50347L3.59991 0.454038C2.11492 -0.65792 0 0.399067 0 2.25296V4.25193V4.25201Z" fill="#C5221F"/>
</svg>
