<svg width="43" height="38" viewBox="0 0 43 38" fill="none" xmlns="http://www.w3.org/2000/svg">
<path d="M43 19C43 29.4934 33.3741 38 21.5 38C9.62588 38 0 29.4934 0 19C0 8.50659 9.62588 0 21.5 0C33.3741 0 43 8.50659 43 19Z" fill="#FF0000"/>
<path d="M9 14.35L21.4474 7L33.8947 14.35V25.9C33.8947 26.457 33.6033 26.9911 33.0846 27.3849C32.5658 27.7787 31.8623 28 31.1287 28H11.7661C11.0325 28 10.3289 27.7787 9.81017 27.3849C9.29143 26.9911 9 26.457 9 25.9V14.35Z" fill="#FF0000" stroke="white" stroke-width="2" stroke-linecap="round" stroke-linejoin="round"/>
<path d="M17.2982 28V17.5H25.5965V28" fill="#FF0000"/>
<path d="M17.2982 28V17.5H25.5965V28" stroke="white" stroke-width="2" stroke-linecap="round" stroke-linejoin="round"/>
</svg>
