<svg width="16" height="12" viewBox="0 0 16 12" fill="none" xmlns="http://www.w3.org/2000/svg">
<path d="M8 11.25C6.14348 11.25 4.36301 10.6969 3.05025 9.71231C1.7375 8.72774 1 7.39239 1 6C1 4.60761 1.7375 3.27226 3.05025 2.28769C4.36301 1.30312 6.14348 0.75 8 0.75C9.85652 0.75 11.637 1.30312 12.9497 2.28769C14.2625 3.27226 15 4.60761 15 6C15 7.39239 14.2625 8.72774 12.9497 9.71231C11.637 10.6969 9.85652 11.25 8 11.25ZM8 12C10.1217 12 12.1566 11.3679 13.6569 10.2426C15.1571 9.11742 16 7.5913 16 6C16 4.4087 15.1571 2.88258 13.6569 1.75736C12.1566 0.632141 10.1217 0 8 0C5.87827 0 3.84344 0.632141 2.34315 1.75736C0.842855 2.88258 0 4.4087 0 6C0 7.5913 0.842855 9.11742 2.34315 10.2426C3.84344 11.3679 5.87827 12 8 12Z" fill="#FF0000"/>
<path d="M7 7.43557C7 7.33708 7.02587 7.23955 7.07612 7.14855C7.12638 7.05756 7.20003 6.97488 7.29289 6.90524C7.38575 6.83559 7.49599 6.78035 7.61732 6.74266C7.73864 6.70497 7.86868 6.68557 8 6.68557C8.13132 6.68557 8.26136 6.70497 8.38268 6.74266C8.50401 6.78035 8.61425 6.83559 8.70711 6.90524C8.79997 6.97488 8.87362 7.05756 8.92388 7.14855C8.97413 7.23955 9 7.33708 9 7.43557C9 7.63448 8.89464 7.82524 8.70711 7.9659C8.51957 8.10655 8.26522 8.18557 8 8.18557C7.73478 8.18557 7.48043 8.10655 7.29289 7.9659C7.10536 7.82524 7 7.63448 7 7.43557ZM7.098 2.93182C7.08468 2.8372 7.09804 2.74154 7.1372 2.65104C7.17636 2.56054 7.24045 2.47723 7.32532 2.40651C7.41018 2.33579 7.51392 2.27924 7.62981 2.24053C7.7457 2.20182 7.87114 2.18182 7.998 2.18182C8.12486 2.18182 8.2503 2.20182 8.36619 2.24053C8.48208 2.27924 8.58582 2.33579 8.67068 2.40651C8.75555 2.47723 8.81964 2.56054 8.8588 2.65104C8.89796 2.74154 8.91132 2.8372 8.898 2.93182L8.548 5.56207C8.53624 5.66539 8.4732 5.76165 8.37136 5.83179C8.26951 5.90194 8.13627 5.94086 7.998 5.94086C7.85973 5.94086 7.72649 5.90194 7.62464 5.83179C7.5228 5.76165 7.45976 5.66539 7.448 5.56207L7.098 2.93182Z" fill="#FF0000"/>
</svg>
