<svg width="22" height="22" viewBox="0 0 30 30" fill="none" xmlns="http://www.w3.org/2000/svg">
<path fill-rule="evenodd" clip-rule="evenodd" d="M11.7719 0.862097C11.7029 0.774931 11.6667 0.676042 11.6667 0.574744C11.6669 0.257835 12.0202 0 12.4544 0C12.6651 6.31507e-05 12.8629 0.05993 13.0116 0.168558C13.1603 0.2772 13.2422 0.421621 13.2421 0.575204C13.2419 0.892107 12.8885 1.14998 12.4544 1.14998H12.4541C12.3223 1.14994 12.1927 1.1258 12.0777 1.08001L11.6601 1.15993L11.7719 0.862097ZM23.7497 21.088L29.592 26.3441C30.137 26.8397 30.137 27.6406 29.5862 28.1362L27.928 29.6283C27.3831 30.1239 26.4924 30.1239 25.9417 29.6283L20.0993 24.3722C19.8356 24.135 19.6892 23.8134 19.6892 23.4759V22.6165C17.6208 24.0717 15.0187 24.9364 12.1886 24.9364C5.45564 24.9364 0 20.0283 0 13.9708C0 7.91336 5.45622 3.00527 12.1886 3.00527C18.921 3.00527 24.3766 7.91336 24.3766 13.9708C24.3766 16.5174 23.4157 18.8578 21.7985 20.719H22.7536C23.1286 20.719 23.486 20.8508 23.7497 21.088ZM3.75115 13.9708C3.75115 18.1698 7.52809 21.562 12.1886 21.562C16.8556 21.562 20.6261 18.164 20.6261 13.9708C20.6261 9.77188 16.8491 6.37961 12.1886 6.37961C7.52164 6.37961 3.75115 9.77768 3.75115 13.9708ZM7.86324 12.803C7.86324 10.6529 9.80034 8.91037 12.1898 8.91037C14.5792 8.91037 16.5163 10.6529 16.5163 12.803C16.5163 14.5413 13.6886 17.709 12.6052 18.8589C12.5544 18.9136 12.4909 18.9576 12.4191 18.9878C12.3473 19.018 12.269 19.0336 12.1898 19.0336C12.1105 19.0336 12.0323 19.018 11.9605 18.9878C11.8887 18.9576 11.8252 18.9136 11.7744 18.8589C10.691 17.709 7.86324 14.5408 7.86324 12.803ZM10.7835 12.7065C10.7835 13.4051 11.4128 13.9719 12.1898 13.9719C12.9661 13.9719 13.596 13.4051 13.596 12.7065C13.596 12.0074 12.9661 11.4411 12.1898 11.4411C11.4134 11.4411 10.7835 12.0074 10.7835 12.7065Z" fill="black"/>
</svg>
