<svg width="31" height="28" viewBox="0 0 31 28" fill="none" xmlns="http://www.w3.org/2000/svg">
<g clip-path="url(#clip0_443_8303)">
<path d="M4.5 16.7396C4.5 16.7396 5.82417 21.0348 6.16667 23.1011C6.55333 25.4343 9.1425 27.2793 15.3333 27.2793C21.5242 27.2793 24.1133 25.4336 24.5 23.1011C24.8425 21.0348 26.1667 16.7396 26.1667 16.7396H4.5Z" fill="#BBDDF5"/>
<path d="M4.57833 16.8101C4.78667 17.7243 5.15667 18.3056 5.69833 18.0056C6.24 17.7056 7.07333 17.8608 6.81833 18.4743C6.58417 19.0368 7.62583 19.2948 8.06833 18.9663C8.4925 18.6521 9.36417 18.3056 9.44833 19.0128C9.52667 19.6691 10.4217 19.8453 10.8283 19.3646C11.245 18.8726 12.3908 19.0691 12.5992 19.6691C12.8075 20.2691 13.9275 20.1851 14.24 19.7628C14.5358 19.3631 14.8342 19.0991 15.3333 19.0991V19.0833C15.8333 19.0833 16.1308 19.3631 16.4267 19.7628C16.7392 20.1843 17.8592 20.2691 18.0675 19.6691C18.2758 19.0691 19.4217 18.8726 19.8383 19.3646C20.2458 19.8453 21.14 19.6691 21.2183 19.0128C21.3025 18.3056 22.1742 18.6513 22.5983 18.9663C23.0408 19.2948 24.0825 19.0368 23.8483 18.4743C23.5925 17.8608 24.4267 17.7056 24.9683 18.0056C25.51 18.3056 25.88 17.7243 26.0883 16.8101H4.57833V16.8101Z" fill="#662113"/>
<path d="M27.8333 14.5601C27.8333 10.8708 22.2242 7.88058 15.3058 7.88058C8.38667 7.88058 2.77833 10.8708 2.77833 14.5601C2.77833 17.5368 10.2783 19.0833 15.3058 19.0833C20.3333 19.0833 27.8333 17.5833 27.8333 14.5601Z" fill="#C1694F"/>
<path d="M15.3333 26.9583C15.2228 26.9583 15.1168 26.9188 15.0387 26.8485C14.9606 26.7782 14.9167 26.6828 14.9167 26.5833V20.0988C14.9167 19.9994 14.9606 19.904 15.0387 19.8337C15.1168 19.7633 15.2228 19.7238 15.3333 19.7238C15.4438 19.7238 15.5498 19.7633 15.628 19.8337C15.7061 19.904 15.75 19.9994 15.75 20.0988V26.5833C15.75 26.6828 15.7061 26.7782 15.628 26.8485C15.5498 26.9188 15.4438 26.9583 15.3333 26.9583ZM9.75083 26.0073C9.6496 26.0072 9.55187 25.974 9.47583 25.9138C9.3998 25.8536 9.35064 25.7707 9.3375 25.6803L8.47833 19.6938C8.46438 19.5951 8.49441 19.4954 8.56187 19.4166C8.62933 19.3378 8.72873 19.2862 8.83833 19.2731C8.89267 19.2665 8.94792 19.2696 9.00088 19.2824C9.05385 19.2951 9.10348 19.3172 9.14689 19.3473C9.1903 19.3775 9.22663 19.4151 9.25377 19.4579C9.28091 19.5008 9.29833 19.5481 9.305 19.5971L10.1642 25.5836C10.1716 25.6365 10.1665 25.6902 10.1491 25.7411C10.1318 25.7921 10.1026 25.8392 10.0635 25.8792C10.0244 25.9193 9.97637 25.9514 9.92247 25.9735C9.86856 25.9956 9.81006 26.0071 9.75083 26.0073V26.0073ZM12.4 26.7393C12.2955 26.7393 12.1948 26.7038 12.1179 26.6401C12.041 26.5763 11.9936 26.4889 11.985 26.3951L11.395 20.0043C11.3905 19.9552 11.3968 19.9058 11.4135 19.8589C11.4303 19.812 11.4571 19.7685 11.4925 19.731C11.5279 19.6934 11.5712 19.6625 11.6199 19.6399C11.6686 19.6174 11.7217 19.6037 11.7763 19.5997C11.8308 19.5957 11.8857 19.6013 11.9378 19.6164C11.9899 19.6315 12.0383 19.6556 12.08 19.6875C12.1217 19.7193 12.1561 19.7583 12.1811 19.8021C12.2062 19.8459 12.2213 19.8937 12.2258 19.9428L12.8158 26.3336C12.8248 26.4326 12.7898 26.5308 12.7184 26.6066C12.647 26.6824 12.545 26.7296 12.435 26.7378L12.4 26.7393ZM7.43417 24.4586C7.36208 24.4585 7.29225 24.4359 7.23652 24.3948C7.18078 24.3537 7.14256 24.2964 7.12833 24.2328L5.87833 18.6543C5.87019 18.6182 5.87005 18.5809 5.87792 18.5447C5.88579 18.5085 5.90152 18.4741 5.92419 18.4434C5.94687 18.4127 5.97606 18.3863 6.01009 18.3657C6.04412 18.3452 6.08232 18.3308 6.1225 18.3236C6.2875 18.2876 6.45583 18.3911 6.49083 18.5433L7.74083 24.1218C7.75013 24.1627 7.74918 24.2049 7.73806 24.2454C7.72694 24.2859 7.70593 24.3236 7.67655 24.3559C7.64717 24.3882 7.61017 24.4141 7.56824 24.4319C7.52631 24.4496 7.48051 24.4588 7.43417 24.4586V24.4586ZM20.8508 25.9226C20.791 25.9227 20.7319 25.9112 20.6775 25.889C20.6231 25.8667 20.5746 25.8341 20.5354 25.7935C20.4962 25.7529 20.4671 25.7051 20.4502 25.6535C20.4334 25.6019 20.429 25.5476 20.4375 25.4943L21.3792 19.5926C21.3963 19.4947 21.4551 19.4067 21.5432 19.3474C21.6313 19.288 21.7417 19.2619 21.8508 19.2746C21.905 19.2816 21.9571 19.2981 22.0042 19.3232C22.0513 19.3483 22.0924 19.3815 22.1252 19.421C22.158 19.4604 22.1819 19.5052 22.1954 19.553C22.209 19.6007 22.2119 19.6503 22.2042 19.6991L21.2625 25.6008C21.2483 25.69 21.1989 25.7716 21.1233 25.8307C21.0477 25.8898 20.951 25.9224 20.8508 25.9226ZM18.3158 26.7393L18.2808 26.7378C18.1708 26.7296 18.0689 26.6824 17.9975 26.6066C17.9261 26.5308 17.891 26.4326 17.9 26.3336L18.49 19.9428C18.5083 19.7358 18.7333 19.5873 18.9392 19.6001C19.0492 19.6083 19.1511 19.6555 19.2225 19.7313C19.2939 19.8071 19.329 19.9053 19.32 20.0043L18.73 26.3951C18.7216 26.4888 18.6744 26.5762 18.5976 26.64C18.5209 26.7038 18.4203 26.7393 18.3158 26.7393V26.7393ZM23.3017 24.4893C23.2557 24.4894 23.2102 24.4803 23.1686 24.4628C23.1269 24.4452 23.0901 24.4195 23.0608 24.3876C23.0315 24.3557 23.0104 24.3183 22.999 24.2782C22.9876 24.2381 22.9863 24.1962 22.995 24.1556L24.1933 18.5463C24.201 18.5101 24.2165 18.4756 24.239 18.4447C24.2615 18.4139 24.2905 18.3873 24.3244 18.3665C24.3583 18.3458 24.3964 18.3313 24.4365 18.3238C24.4767 18.3163 24.5181 18.3159 24.5583 18.3228C24.5986 18.3297 24.637 18.3437 24.6712 18.3639C24.7055 18.3842 24.735 18.4103 24.7581 18.4408C24.7812 18.4713 24.7973 18.5056 24.8056 18.5417C24.814 18.5778 24.8143 18.6151 24.8067 18.6513L23.6083 24.2606C23.5949 24.3249 23.5569 24.383 23.5009 24.4248C23.4449 24.4666 23.3744 24.4894 23.3017 24.4893V24.4893Z" fill="#88C9F9"/>
<path d="M14.4267 0.325073C14.4267 0.325073 15.3325 1.18307 16.2392 1.20032C18.1292 1.23707 19.8683 2.18657 19.8683 3.82982C19.8683 3.82982 24.2525 3.82982 24.4042 7.33532C24.4042 7.33532 26.6167 7.36907 27.1233 10.8393C27.5017 13.4313 24.5917 17.0096 15.3333 16.9728C7.17083 16.9406 2.995 14.3298 3.54333 10.8408C4.07167 7.48082 7.17167 7.33607 7.17167 7.33607C7.17167 7.33607 6.64167 2.95382 12.6125 2.95457C12.6125 2.95457 13.2175 1.20182 14.4267 0.325073V0.325073Z" fill="#FFE8B6"/>
<path d="M15.2583 8.21133C17.705 7.38033 19.9442 5.87508 19.8692 3.83058C19.8692 3.18708 19.5967 2.65458 19.1592 2.23683C19.695 4.34283 16.1167 6.73683 12.16 7.11633C7.20917 7.59108 7.77583 4.96233 7.77583 4.96233L7.77 4.96758C7.03417 6.11958 7.1725 7.33683 7.1725 7.33683C7.92667 9.12408 11.8192 9.37983 15.2583 8.21133V8.21133Z" fill="#FFCC4D"/>
<path d="M24.4042 7.33607C24.3992 7.22882 24.3792 7.13507 24.3667 7.03457C24.27 6.52682 23.9892 5.90507 23.7217 5.43107C23.5633 5.23232 23.3883 5.05682 23.1967 4.90457C24.1208 8.22407 18.5608 12.2163 13.255 13.1411C6.33917 14.3456 3.54333 10.8423 3.54333 10.8423C3.25833 12.6536 4.25833 14.2241 6.4175 15.3243C14.94 18.4511 24.4783 10.7531 24.4042 7.33607V7.33607Z" fill="#FFCC4D"/>
<path d="M7.57417 10.9841L6.59 12.1946C6.459 12.3547 6.26293 12.4615 6.04464 12.4919C5.82634 12.5223 5.60356 12.4736 5.425 12.3566C5.24715 12.2387 5.12838 12.0622 5.09465 11.8658C5.06092 11.6693 5.11498 11.4688 5.245 11.3081L6.22917 10.0976C6.36016 9.93751 6.55623 9.83062 6.77453 9.80027C6.99283 9.76991 7.2156 9.81856 7.39417 9.93558C7.76417 10.1793 7.845 10.6511 7.57417 10.9841V10.9841Z" fill="#DD2E44"/>
<path d="M12.7792 6.47358L11.1492 6.15933C10.9334 6.11724 10.7449 5.99995 10.625 5.83311C10.505 5.66627 10.4634 5.46347 10.5092 5.26908C10.605 4.86558 11.0508 4.60608 11.4983 4.69308L13.1283 5.00733C13.5767 5.09358 13.865 5.49483 13.7683 5.89758C13.7218 6.09188 13.5915 6.26164 13.4061 6.36961C13.2206 6.47759 12.9952 6.51498 12.7792 6.47358V6.47358Z" fill="#55ACEE"/>
<path d="M14.4612 9.25685L15.5554 10.3886C15.8562 10.6998 15.8196 11.1761 15.4737 11.4468C15.3067 11.5769 15.0893 11.6422 14.869 11.6284C14.6486 11.6146 14.4433 11.5229 14.2979 11.3733L13.2037 10.2416C13.0592 10.0913 12.9867 9.8956 13.002 9.69731C13.0173 9.49902 13.1192 9.31425 13.2854 9.18335C13.4524 9.0533 13.6698 8.98804 13.8901 9.00181C14.1105 9.01558 14.3158 9.10727 14.4612 9.25685Z" fill="#77B255"/>
<path d="M20.6433 8.95758L19.0842 9.48783C18.8774 9.55754 18.6483 9.55076 18.4471 9.46898C18.2458 9.38719 18.0887 9.23704 18.01 9.05133C17.9325 8.86521 17.9401 8.65907 18.031 8.47793C18.1218 8.29679 18.2887 8.15538 18.495 8.08458L20.0542 7.55433C20.261 7.48463 20.49 7.49141 20.6913 7.57319C20.8925 7.65498 21.0497 7.80512 21.1283 7.99083C21.2058 8.17696 21.1983 8.3831 21.1074 8.56424C21.0165 8.74538 20.8497 8.88679 20.6433 8.95758Z" fill="#F4900C"/>
<path d="M25.6383 10.8716L24.805 12.1706C24.5758 12.5276 24.0633 12.6513 23.6667 12.4451C23.4758 12.3452 23.3366 12.1814 23.2794 11.9894C23.2223 11.7975 23.2518 11.593 23.3617 11.4206L24.195 10.1216C24.4242 9.76458 24.9367 9.64083 25.3333 9.84708C25.73 10.0533 25.8675 10.5138 25.6383 10.8716V10.8716Z" fill="#AA8DD8"/>
</g>
<defs>
<clipPath id="clip0_443_8303">
<rect width="30" height="27" fill="white" transform="translate(0.333334 0.333328)"/>
</clipPath>
</defs>
</svg>
