<svg width="34" height="33" viewBox="0 0 34 33" fill="none" xmlns="http://www.w3.org/2000/svg">
<path d="M0 2.02513V30.9734C0.000215189 31.0362 0.0209999 31.0976 0.059748 31.1498C0.098496 31.202 0.153482 31.2427 0.217812 31.2668C0.282142 31.291 0.352951 31.2975 0.421361 31.2855C0.48977 31.2735 0.552735 31.2436 0.602359 31.1995L17.327 16.5L0.602359 1.79899C0.552735 1.7549 0.48977 1.72499 0.421361 1.71301C0.352951 1.70104 0.282142 1.70754 0.217812 1.73169C0.153482 1.75584 0.098496 1.79657 0.059748 1.84877C0.0209999 1.90097 0.000215189 1.96232 0 2.02513V2.02513ZM24.3396 10.4599L3.36896 0.0473619L3.35589 0.0407325C2.99463 -0.136051 2.65136 0.304434 2.94723 0.56077L19.3858 14.727L24.3396 10.4599ZM2.94886 32.4392C2.65136 32.6956 2.99463 33.1361 3.35752 32.9593L3.3706 32.9526L24.3396 22.5401L19.3858 18.2715L2.94886 32.4392ZM32.8053 14.6585L26.9492 11.7519L21.443 16.5L26.9492 21.2459L32.8053 18.3415C34.3982 17.5482 34.3982 15.4518 32.8053 14.6585Z" fill="black"/>
</svg>
