<svg width="48" height="45" viewBox="0 0 27 28" fill="none" xmlns="http://www.w3.org/2000/svg">
<g clip-path="url(#clip0_444_33854)">
<path d="M21.3804 18.8154C21.3804 19.5159 20.9803 20.1565 20.3478 20.4577C19.1538 21.0265 16.8786 21.793 13.2881 21.793C9.69764 21.793 7.42244 21.0265 6.22839 20.4577C5.59593 20.1565 5.19582 19.5159 5.19582 18.8154C5.19582 17.809 6.01165 16.9932 7.01803 16.9932H19.5582C20.5646 16.9932 21.3804 17.809 21.3804 18.8154Z" fill="#E59328"/>
<path d="M21.3101 16.0394C21.3101 15.3389 20.91 14.6983 20.2775 14.3971C19.0835 13.8283 16.8082 13.0618 13.2178 13.0618C9.6273 13.0618 7.35209 13.8283 6.15805 14.3971C5.52559 14.6983 5.12547 15.3389 5.12547 16.0394C5.12547 16.0496 5.12607 16.0595 5.12625 16.0696C5.12607 16.0797 5.12547 16.0897 5.12547 16.0998C5.12547 16.8003 5.52559 17.4409 6.15805 17.7421C7.35209 18.3109 9.6273 19.0774 13.2178 19.0774C16.8082 19.0774 19.0835 18.3109 20.2775 17.7421C20.91 17.4409 21.3101 16.8003 21.3101 16.0998C21.3101 16.0896 21.3095 16.0796 21.3093 16.0696C21.3095 16.0595 21.3101 16.0495 21.3101 16.0394Z" fill="#7A2F18"/>
<path d="M13.398 17.8303C17.5029 17.8303 20.8306 16.6968 20.8306 15.2985C20.8306 13.9002 17.5029 12.7667 13.398 12.7667C9.29308 12.7667 5.96539 13.9002 5.96539 15.2985C5.96539 16.6968 9.29308 17.8303 13.398 17.8303Z" fill="#DB1D1D"/>
<path d="M13.398 16.8665C17.5029 16.8665 20.8306 15.733 20.8306 14.3348C20.8306 12.9365 17.5029 11.803 13.398 11.803C9.29308 11.803 5.96539 12.9365 5.96539 14.3348C5.96539 15.733 9.29308 16.8665 13.398 16.8665Z" fill="#FF473E"/>
<path d="M21.4544 12.7399C20.6049 12.2683 19.3632 12.0828 18.2717 12.0833C17.6763 12.0835 17.0701 12.1457 16.5019 12.2619C16.0592 12.3523 15.6266 12.4668 15.1713 12.5258C15.095 12.5289 15.0186 12.5296 14.9423 12.5279C14.8899 12.5198 14.8378 12.5102 14.786 12.4991C14.5973 12.4357 14.4181 12.3615 14.2352 12.2906C13.942 12.177 13.6351 12.0882 13.3193 12.0044C12.7639 11.8571 12.1789 11.7869 11.5836 11.7517C10.4593 11.6854 9.30035 11.8548 8.30078 12.1953C8.14072 12.2085 7.98282 12.2408 7.83043 12.2915C6.81009 12.6318 5.94595 13.1749 5.33905 13.8093C5.21016 13.944 5.09605 14.0848 4.9981 14.2304C4.7846 14.5476 4.59307 14.8739 4.78245 15.2246C5.13704 15.8815 6.19675 16.1211 7.1716 15.967C7.844 15.8607 8.36832 15.5694 8.89563 15.2938C9.02782 15.2312 9.16464 15.174 9.30896 15.125C9.32499 15.1216 9.34099 15.7162 9.35712 15.7131C9.49234 15.7942 9.61967 15.8809 9.75787 15.9601C9.99328 16.095 10.2451 16.225 10.513 16.3315C11.0614 16.5497 11.7174 16.6895 12.3628 16.6855C13.0221 16.6815 13.6518 16.5433 14.1721 16.2794C14.4493 16.1388 14.6767 15.973 14.8523 15.7711C14.9166 15.6972 14.9722 15.6206 15.033 15.5461C15.0827 15.5547 15.4591 15.0812 15.5904 15.1436C15.919 15.3166 16.2398 15.4983 16.596 15.6458C17.0884 15.8498 17.668 15.9722 18.2525 15.9732C19.378 15.9753 20.4397 15.5489 21.2211 15.0464C21.6243 14.7871 22.0014 14.443 22.1123 14.0725C22.2592 13.5817 22.0497 13.0704 21.4544 12.7399ZM9.92968 13.5084C10.1648 13.4579 10.4022 13.4192 10.6411 13.3922C10.9707 13.3716 11.3013 13.3716 11.6309 13.3922C11.9403 13.4272 12.2428 13.4805 12.5368 13.5528C12.7701 13.6265 12.9892 14.313 13.2124 14.3979C12.9863 14.5731 12.8588 14.7821 12.6726 14.9752C12.6631 14.9816 12.6534 14.9878 12.6436 14.9941C12.6195 15.0037 12.5951 15.0129 12.5706 15.0217C12.5248 15.031 12.4788 15.0391 12.4326 15.0462C12.3734 15.0478 12.3142 15.0477 12.2551 15.0459C12.1668 15.0328 12.079 15.0164 11.992 14.9968C11.8521 14.9506 11.7149 14.8966 11.581 14.8351C11.3356 14.6976 11.1136 14.5437 10.8573 14.4138C10.5806 14.2735 10.2664 13.5648 9.92968 13.5084ZM19.1628 14.0601C18.9839 14.1444 18.7974 14.2203 18.6001 14.2843C18.5125 14.3042 18.4242 14.3207 18.3354 14.3339C18.2896 14.335 18.2437 14.3351 18.1979 14.3341C18.1525 14.3269 18.1072 14.3186 18.0622 14.3092C17.9054 14.2558 17.7579 14.1923 17.6149 14.1237C17.4463 14.0344 17.2796 13.9421 17.1087 13.8539C17.3423 13.8062 17.5777 13.7644 17.8195 13.7356C18.1272 13.7168 18.4358 13.7169 18.7435 13.7362C18.9956 13.7651 19.2459 13.8077 19.4934 13.8638C19.389 13.9332 19.2779 13.9981 19.1628 14.0601Z" fill="#00B89C"/>
<path d="M8.37791 16.5063C7.90608 15.7431 6.99908 14.3362 5.86589 12.8715C4.23766 13.1479 17.2143 10.9606 17.2143 10.9606C20.838 11.3423 21.3167 13.1351 21.3185 14.0492C21.3191 14.3417 21.0682 14.5719 20.7763 14.5513C13.0131 14.0016 10.1065 15.7345 9.1491 16.615C8.91584 16.8294 8.54455 16.7759 8.37791 16.5063Z" fill="#FECB21"/>
<path d="M13.2178 5.73291C8.8867 5.73291 5.12547 8.46835 5.12547 11.7633C5.12547 13.5201 8.7485 14.9442 13.2178 14.9442C17.687 14.9442 21.3101 13.5201 21.3101 11.7633C21.3101 8.56155 17.5488 5.73291 13.2178 5.73291Z" fill="#E59328"/>
<path d="M8.1429 9.51999L8.48254 10.2559C8.50179 10.2976 8.50368 10.3453 8.4878 10.3884C8.47191 10.4315 8.43956 10.4665 8.39785 10.4858C8.37359 10.4968 8.34712 10.5022 8.32047 10.5015C8.29381 10.5007 8.26768 10.4939 8.24408 10.4815L7.52808 10.1017C7.31019 9.98613 7.22722 9.71578 7.34281 9.49788C7.4584 9.27998 7.72876 9.19701 7.94665 9.3126C8.03307 9.35831 8.10203 9.43119 8.1429 9.51999ZM15.3025 6.91569C15.0846 6.80009 14.8143 6.88306 14.6987 7.10096C14.5831 7.31886 14.666 7.58921 14.8839 7.7048L15.5999 8.0846C15.6235 8.09699 15.6497 8.10382 15.6763 8.10456C15.703 8.1053 15.7294 8.09992 15.7537 8.08885C15.7954 8.0696 15.8278 8.03457 15.8436 7.99146C15.8595 7.94836 15.8576 7.90071 15.8384 7.859L15.4987 7.12307C15.4579 7.03428 15.3889 6.96141 15.3025 6.91569ZM11.2736 7.82071C11.1321 7.61864 10.8536 7.56952 10.6515 7.71103C10.4495 7.85249 10.4003 8.131 10.5419 8.33308L11.0067 8.99701C11.0221 9.01879 11.0423 9.03676 11.0657 9.04954C11.0891 9.06232 11.1151 9.06957 11.1417 9.07073C11.1876 9.07256 11.2324 9.05607 11.2661 9.02491C11.2999 8.99375 11.3199 8.95045 11.3217 8.90455L11.354 8.09469C11.358 7.99701 11.3297 7.90074 11.2736 7.82071ZM19.483 9.79519C19.5899 9.562 19.4875 9.28634 19.2543 9.1795C19.0211 9.07263 18.7455 9.17504 18.6386 9.40819L18.3766 9.97997C18.3621 10.0115 18.3571 10.0465 18.3621 10.0807C18.367 10.115 18.3818 10.1472 18.4045 10.1733C18.4273 10.1994 18.4571 10.2184 18.4903 10.228C18.5236 10.2377 18.559 10.2375 18.5921 10.2275L19.1945 10.0465C19.317 10.009 19.4254 9.92081 19.483 9.79519ZM12.8576 11.6814C12.6151 11.6362 12.3818 11.796 12.3365 12.0385C12.2913 12.281 12.4512 12.5142 12.6936 12.5595L13.4904 12.7082C13.5166 12.713 13.5436 12.7117 13.5692 12.7045C13.5949 12.6972 13.6185 12.6842 13.6384 12.6664C13.6552 12.6511 13.6689 12.6327 13.6787 12.6122C13.6884 12.5916 13.694 12.5693 13.6952 12.5466C13.6963 12.5239 13.6929 12.5012 13.6853 12.4797C13.6776 12.4583 13.6658 12.4386 13.6506 12.4218L13.1067 11.8208C13.0413 11.7482 12.9537 11.6992 12.8576 11.6814ZM17.1519 12.3583C17.2506 12.5844 17.5139 12.6876 17.74 12.5888C17.966 12.4901 18.0692 12.2268 17.9705 12.0007L17.646 11.258C17.6352 11.2336 17.619 11.212 17.5986 11.1949C17.5782 11.1777 17.5541 11.1655 17.5282 11.159C17.5061 11.1537 17.4832 11.1527 17.4607 11.1562C17.4382 11.1597 17.4166 11.1675 17.3972 11.1794C17.3778 11.1912 17.3608 11.2067 17.3474 11.2251C17.334 11.2435 17.3243 11.2643 17.3189 11.2864L17.1272 12.0739C17.104 12.1688 17.1127 12.2688 17.1519 12.3583ZM10.4431 12.1364C10.4714 11.8885 10.2934 11.6647 10.0456 11.6363C9.79774 11.608 9.57386 11.786 9.54552 12.0338L9.45247 12.8482C9.45015 12.869 9.45231 12.89 9.45878 12.9099C9.46526 12.9298 9.47591 12.9481 9.49001 12.9635C9.51621 12.992 9.55265 13.009 9.59133 13.0106C9.63001 13.0122 9.66776 12.9984 9.69627 12.9723L10.2999 12.4177C10.3799 12.3442 10.4307 12.2443 10.4431 12.1364ZM14.5366 10.6649C14.7681 10.7499 15.0248 10.6312 15.1098 10.3996C15.1949 10.1681 15.0761 9.91146 14.8446 9.82641L14.0837 9.54699C14.0587 9.53791 14.0319 9.53468 14.0054 9.53756C13.9788 9.54044 13.9533 9.54934 13.9308 9.56358C13.8921 9.5883 13.8648 9.62739 13.8549 9.67225C13.845 9.71711 13.8533 9.76407 13.878 9.80279L14.3141 10.486C14.3666 10.5684 14.4448 10.6313 14.5366 10.6649Z" fill="#FFCD7D"/>
</g>
<defs>
<clipPath id="clip0_444_33854">
<rect width="18" height="18" fill="white" transform="translate(4.33333 4.83337)"/>
</clipPath>
</defs>
</svg>
