<svg width="19" height="15" viewBox="0 0 19 15" fill="none" xmlns="http://www.w3.org/2000/svg">
                <path
                    d="M12.9429 8.32091L12.6484 8.66945L13.0325 8.91578C13.0833 8.94835 13.1285 8.98043 13.1822 9.01858C13.2017 9.0324 13.2223 9.04702 13.2447 9.06275C13.3222 9.11723 13.412 9.17809 13.5188 9.23745C13.7891 9.40349 14.1478 9.60767 14.5946 9.84032C14.7352 9.91671 14.8579 9.98288 14.9638 10.04C15.2024 10.1687 15.356 10.2515 15.438 10.302L15.4379 10.3022L15.4502 10.3092C15.9934 10.6177 16.3819 10.8696 16.6362 11.0654C17.04 11.3761 17.3878 11.6924 17.6828 12.0235L17.6828 12.0235L17.6883 12.0295C17.9946 12.3596 18.2234 12.6753 18.4027 12.9962C18.5641 13.3083 18.6197 13.5559 18.594 13.7674L18.593 13.7753L18.5923 13.7833C18.5764 13.9792 18.4864 14.1534 18.2751 14.316C18.0609 14.4808 17.7888 14.5798 17.4378 14.5967L17.4372 14.5967C17.0837 14.6143 16.6882 14.5618 16.2877 14.4258L16.2877 14.4256L16.2768 14.4222C15.8482 14.2903 15.4158 14.1006 14.9925 13.8611L14.9926 13.8609L14.9822 13.8555C14.5454 13.625 14.1318 13.3551 13.7284 13.0447C13.4748 12.8495 13.1496 12.5523 12.7648 12.1477L12.7649 12.1476L12.7578 12.1405C12.6777 12.0604 12.5727 11.9453 12.4275 11.7861C12.3491 11.7002 12.2591 11.6015 12.1549 11.4885C11.8643 11.1633 11.6241 10.9065 11.4088 10.689L11.4089 10.6889L11.4018 10.6821C11.1854 10.4739 11.0035 10.312 10.7916 10.1489L10.6103 10.0094L10.3981 10.0949C9.10208 10.6171 7.61698 10.8093 6.16196 10.6389C4.70677 10.4685 3.3719 9.94615 2.34836 9.16017C1.03105 8.1414 0.4 6.83034 0.4 5.54833C0.4 4.26625 1.03109 2.9578 2.34824 1.94414L2.34842 1.944C2.97801 1.4589 3.73078 1.07029 4.56547 0.803983C5.40006 0.537715 6.29701 0.4 7.20439 0.4C8.11177 0.4 9.00873 0.537715 9.84331 0.803983C10.678 1.07029 11.4308 1.4589 12.0604 1.944C13.1593 2.79075 13.8241 3.8834 13.9796 5.02831C14.1346 6.17037 13.7788 7.33167 12.9429 8.32091ZM10.7003 8.36096L10.7009 8.36045C11.6377 7.63425 12.193 6.62689 12.193 5.54707C12.193 4.46724 11.6377 3.45988 10.7009 2.73369L10.7003 2.73318C10.2347 2.3738 9.68664 2.09246 9.08935 1.90166C8.49194 1.71083 7.85384 1.61326 7.21095 1.61326C6.56806 1.61326 5.92995 1.71083 5.33255 1.90166C4.73545 2.0924 4.18756 2.37362 3.72207 2.73283C3.25531 3.09106 2.87769 3.52222 2.61716 4.00527C2.35616 4.48916 2.21911 5.0135 2.21911 5.54707C2.21911 6.08064 2.35616 6.60498 2.61716 7.08887C2.87761 7.57175 3.25507 8.00279 3.72161 8.36096C4.18721 8.72034 4.73525 9.00167 5.33255 9.19247C5.92995 9.38331 6.56806 9.48087 7.21095 9.48087C7.85384 9.48087 8.49194 9.38331 9.08935 9.19247C9.68664 9.00167 10.2347 8.72034 10.7003 8.36096Z"
                    fill="#171717" stroke="#0E0E0E" stroke-width="0.8" />
            </svg>