<svg width="24" height="24" viewBox="0 0 16 15" fill="none" xmlns="http://www.w3.org/2000/svg">
<path d="M8.00004 13.75C4.31804 13.75 1.33337 10.9519 1.33337 7.5C1.33337 4.04813 4.31804 1.25 8.00004 1.25C11.682 1.25 14.6667 4.04813 14.6667 7.5C14.6667 10.9519 11.682 13.75 8.00004 13.75ZM8.00004 12.5C9.41453 12.5 10.7711 11.9732 11.7713 11.0355C12.7715 10.0979 13.3334 8.82608 13.3334 7.5C13.3334 6.17392 12.7715 4.90215 11.7713 3.96447C10.7711 3.02678 9.41453 2.5 8.00004 2.5C6.58555 2.5 5.229 3.02678 4.2288 3.96447C3.22861 4.90215 2.66671 6.17392 2.66671 7.5C2.66671 8.82608 3.22861 10.0979 4.2288 11.0355C5.229 11.9732 6.58555 12.5 8.00004 12.5V12.5ZM8.00004 10.625C7.82323 10.625 7.65366 10.5592 7.52864 10.4419C7.40361 10.3247 7.33337 10.1658 7.33337 10C7.33337 9.83424 7.40361 9.67527 7.52864 9.55806C7.65366 9.44085 7.82323 9.375 8.00004 9.375C8.17685 9.375 8.34642 9.44085 8.47144 9.55806C8.59647 9.67527 8.66671 9.83424 8.66671 10C8.66671 10.1658 8.59647 10.3247 8.47144 10.4419C8.34642 10.5592 8.17685 10.625 8.00004 10.625ZM8.85071 8.61375C8.71138 8.71586 8.53449 8.7619 8.35896 8.74174C8.18342 8.72158 8.02362 8.63687 7.91471 8.50625C7.80579 8.37563 7.75668 8.2098 7.77819 8.04524C7.79969 7.88067 7.89005 7.73086 8.02937 7.62875L8.29204 7.43625C8.396 7.36061 8.48301 7.26648 8.54809 7.15925C8.61317 7.05202 8.65503 6.93381 8.67128 6.81138C8.68753 6.68895 8.67784 6.56472 8.64278 6.44581C8.60771 6.3269 8.54796 6.21565 8.46694 6.11843C8.38592 6.02122 8.28523 5.93995 8.17064 5.87929C8.05605 5.81862 7.92982 5.77976 7.79918 5.76493C7.66854 5.75009 7.53606 5.75958 7.40934 5.79284C7.28261 5.8261 7.16414 5.88248 7.06071 5.95875L6.79804 6.15125C6.72936 6.20456 6.64997 6.24441 6.56457 6.26844C6.47917 6.29248 6.38949 6.30021 6.30085 6.29117C6.21221 6.28214 6.1264 6.25653 6.0485 6.21585C5.9706 6.17518 5.9022 6.12027 5.84734 6.05437C5.79248 5.98847 5.75228 5.91293 5.72911 5.8322C5.70595 5.75148 5.70029 5.66722 5.71248 5.58441C5.72467 5.50161 5.75445 5.42193 5.80006 5.3501C5.84568 5.27828 5.9062 5.21576 5.97804 5.16625L6.24004 4.97375C6.72769 4.61654 7.34672 4.45556 7.96096 4.52624C8.57521 4.59692 9.13435 4.89346 9.51537 5.35062C9.8964 5.80779 10.0681 6.38814 9.99272 6.96399C9.91733 7.53984 9.60102 8.06404 9.11337 8.42125L8.85071 8.61375Z" fill="black"/>
</svg>
