<svg width="100" height="25" viewBox="0 0 112 31" fill="none" xmlns="http://www.w3.org/2000/svg">
<path d="M57.9237 9.91034C57.8598 14.2288 62.4138 16.6385 65.8442 18.0713C69.3687 19.5413 70.5526 20.484 70.5386 21.7988C70.5123 23.8106 67.7272 24.6986 65.121 24.7331C60.5741 24.7935 57.9303 23.6809 55.8285 22.8394L54.1905 29.4089C56.2992 30.2418 60.2039 30.9681 64.253 31C73.7577 31 79.9759 26.9786 80.0096 20.7435C80.0467 12.8304 67.2398 12.3924 67.3273 8.85548C67.3575 7.783 68.5514 6.63852 71.1677 6.34752C72.4627 6.20053 76.0375 6.08803 80.0905 7.68775L81.6812 1.3316C79.5016 0.651366 76.7003 4.05426e-07 73.2126 4.05426e-07C64.2666 4.05426e-07 57.9744 4.07618 57.9237 9.91034ZM96.9666 0.547491C95.2311 0.547491 93.7685 1.41523 93.1157 2.74683L79.5388 30.5331H89.0365L90.9265 26.0561H102.533L103.629 30.5331H112L104.695 0.547491H96.9666ZM98.2953 8.64774L101.036 19.9077H93.5296L98.2953 8.64774ZM46.4082 0.547866L38.9217 30.5328H47.9723L55.4553 0.547116H46.4082M33.0194 0.547116L23.5992 20.9569L19.7886 3.60332C19.3414 1.6661 17.5757 0.547491 15.6148 0.547491H0.215688L0 1.41823C3.16137 2.00622 6.75325 2.95458 8.92937 3.96931C10.2611 4.58918 10.6409 5.13104 11.0784 6.60402L18.2958 30.5331H27.86L42.5232 0.547491L33.0194 0.547116Z" fill="url(#paint0_linear_19_3050)"/>
<defs>
<linearGradient id="paint0_linear_19_3050" x1="51.4909" y1="31.6219" x2="52.2602" y2="-0.2223" gradientUnits="userSpaceOnUse">
<stop stop-color="#222357"/>
<stop offset="1" stop-color="#254AA5"/>
</linearGradient>
</defs>
</svg>
