<svg width="27" height="22" viewBox="0 0 27 22" fill="none" xmlns="http://www.w3.org/2000/svg">
<path d="M1.10419 10.9099C1.10359 12.6563 1.67656 14.3616 2.76605 15.8646L1 21L7.59888 19.622C9.42404 20.4133 11.469 20.828 13.5471 20.8281H13.5526C20.4127 20.8281 25.9971 16.3822 26 10.9177C26.0013 8.26975 24.7077 5.77979 22.3573 3.90648C20.0074 2.03333 16.882 1.00121 13.552 1C6.69107 1 1.10703 5.44561 1.10419 10.9099Z" fill="url(#paint0_linear_0_1)"/>
<path d="M0.112852 10.901C0.112113 12.8223 0.730898 14.6979 1.9073 16.3511L0 22L7.12663 20.4842C9.09025 21.3527 11.3011 21.8106 13.5507 21.8113H13.5565C20.9655 21.8113 26.9968 16.9203 27 10.9097C27.0013 7.99675 25.604 5.25756 23.066 3.19699C20.5277 1.13667 17.1527 0.00119776 13.5565 0C6.1463 0 0.11591 4.89028 0.112957 10.901H0.112852ZM4.35691 16.0664L4.09082 15.7237C2.97221 14.281 2.3818 12.6137 2.38264 10.9017C2.38507 5.90572 7.39737 1.84113 13.5608 1.84113C16.5455 1.84215 19.3506 2.78599 21.4604 4.49844C23.5701 6.21106 24.7309 8.48766 24.7302 10.909C24.7275 15.9049 19.7151 19.9701 13.5565 19.9701H13.5521C11.5468 19.9692 9.58015 19.5324 7.86502 18.7068L7.45685 18.5105L3.22777 19.4099L4.35691 16.0663V16.0664Z" fill="url(#paint1_linear_0_1)"/>
<path d="M9.81354 6.46455C9.53706 6.02283 9.24609 6.01392 8.98316 6.00617C8.76786 5.99951 8.52173 6.00001 8.27584 6.00001C8.02972 6.00001 7.62982 6.06656 7.29181 6.33186C6.95344 6.59741 6 7.23912 6 8.54429C6 9.84954 7.32251 11.1109 7.50688 11.2881C7.69147 11.4649 10.06 14.229 13.8112 15.2924C16.9288 16.176 17.5632 16.0003 18.2398 15.956C18.9166 15.9118 20.4234 15.3144 20.7309 14.695C21.0385 14.0756 21.0385 13.5446 20.9463 13.4337C20.854 13.3232 20.6079 13.2568 20.2388 13.1242C19.8697 12.9915 18.0552 12.3497 17.717 12.2611C17.3786 12.1727 17.1326 12.1285 16.8865 12.3942C16.6404 12.6594 15.9336 13.2568 15.7182 13.4337C15.503 13.611 15.2876 13.6331 14.9187 13.5004C14.5494 13.3673 13.3608 13.0875 11.9507 12.1838C10.8535 11.4806 10.1129 10.6123 9.89755 10.3467C9.68225 10.0814 9.87449 9.93767 10.0595 9.80548C10.2254 9.68661 10.4287 9.4957 10.6134 9.34085C10.7975 9.18592 10.8589 9.07539 10.9819 8.89846C11.1051 8.72138 11.0435 8.56645 10.9513 8.43376C10.8589 8.30106 10.1417 6.98907 9.81354 6.46455Z" fill="white"/>
<defs>
<linearGradient id="paint0_linear_0_1" x1="13.5" y1="21" x2="13.5" y2="1" gradientUnits="userSpaceOnUse">
<stop stop-color="#1FAF38"/>
<stop offset="1" stop-color="#60D669"/>
</linearGradient>
<linearGradient id="paint1_linear_0_1" x1="13.5" y1="22" x2="13.5" y2="0" gradientUnits="userSpaceOnUse">
<stop stop-color="#F9F9F9"/>
<stop offset="1" stop-color="white"/>
</linearGradient>
</defs>
</svg>
